<svg width="362" height="128" viewBox="0 0 362 128" fill="none" xmlns="http://www.w3.org/2000/svg">
<rect width="362" height="128" rx="15" fill="white"/>
<path d="M39.2299 96.2531C46.9201 102.282 56.5571 105.574 66.4988 105.575C72.1452 105.589 77.7391 104.534 82.9569 102.47C88.1743 100.405 92.9127 97.3725 96.8974 93.5456C103.934 86.8242 108.316 77.9764 109.293 68.5081C110.269 59.0397 107.778 49.5429 102.247 41.6366C96.717 33.7309 88.4917 27.9058 78.9762 25.1486C69.4609 22.3914 59.2394 22.8709 50.052 26.5061C40.8642 30.1414 33.275 36.7095 28.582 45.0963C23.8887 53.4838 22.3841 63.1688 24.3272 72.4998C26.2702 81.8304 31.5391 90.224 39.2299 96.2531ZM24.8248 64.4777C24.8248 42.5609 43.4989 24.6908 66.5001 24.6908C89.5014 24.6908 108.176 42.5609 108.176 64.4777C108.176 86.3946 89.5014 104.265 66.5001 104.265C43.4989 104.265 24.8248 86.3946 24.8248 64.4777Z" fill="#2F2E41" stroke="black"/>
<path d="M94.6141 40.0151C99.2585 40.0151 103.024 36.4033 103.024 31.9479C103.024 27.4925 99.2585 23.8807 94.6141 23.8807C89.9696 23.8807 86.2045 27.4925 86.2045 31.9479C86.2045 36.4033 89.9696 40.0151 94.6141 40.0151Z" fill="#3F3D56"/>
<path d="M89.2344 79.9592L89.2295 79.9617L67.5105 91.563L43.7277 80.1558L43.3179 79.9592L44.5522 56.2781L66.0293 41.5958L66.2663 41.738L88.4939 55.0941L89.2344 79.9592Z" fill="#5D00A9"/>
<path opacity="0.3" d="M89.2293 79.9614L67.5104 91.5628L43.7275 80.1556L64.7948 65.9872L89.2293 79.9614Z" fill="black"/>
<path opacity="0.1" d="M89.063 79.8752L64.6235 65.9034L66.0949 41.6539L88.3224 55.01L89.063 79.8752Z" fill="black"/>
<path d="M44.2364 63.5855L44.1157 63.4216L65.8325 48.7172L88.7733 62.5147L88.6622 62.6847L65.8393 48.9581L44.2364 63.5855Z" fill="#F2F2F2"/>
<path d="M43.8156 71.6311L43.6982 71.4652L65.3049 57.3932L65.3615 57.424L88.7929 70.1632L88.6896 70.3377L65.3148 57.6292L43.8156 71.6311Z" fill="#F2F2F2"/>
<path d="M52.0589 84.2105L51.9487 84.04L73.7246 71.0962V46.2823H73.9337V71.208L52.0589 84.2105Z" fill="#F2F2F2"/>
<path d="M60.6062 88.3099L60.4951 88.14L81.4627 75.5242V50.9321H81.6718V75.6353L60.6062 88.3099Z" fill="#F2F2F2"/>
<path d="M81.384 84.2133L56.9985 71.216L57.002 71.1535L58.2857 46.8136L58.4945 46.8238L57.2141 71.1013L81.4856 84.0379L81.384 84.2133Z" fill="#F2F2F2"/>
<path d="M73.7117 88.3132L49.6001 76.1923L49.6038 76.1279L51.0252 51.7759L51.234 51.7871L49.8166 76.0746L73.8088 88.1355L73.7117 88.3132Z" fill="#F2F2F2"/>
<path d="M173.175 81.8807H166.175L150.325 57.9307V81.8807H143.325V46.9307H150.325L166.175 70.9307V46.9307H173.175V81.8807ZM205.843 67.4307C205.843 68.4307 205.776 69.3307 205.643 70.1307H185.393C185.559 72.1307 186.259 73.6974 187.493 74.8307C188.726 75.9641 190.243 76.5307 192.043 76.5307C194.643 76.5307 196.493 75.4141 197.593 73.1807H205.143C204.343 75.8474 202.809 78.0474 200.543 79.7807C198.276 81.4807 195.493 82.3307 192.193 82.3307C189.526 82.3307 187.126 81.7474 184.993 80.5807C182.893 79.3807 181.243 77.6974 180.043 75.5307C178.876 73.3641 178.293 70.8641 178.293 68.0307C178.293 65.1641 178.876 62.6474 180.043 60.4807C181.209 58.3141 182.843 56.6474 184.943 55.4807C187.043 54.3141 189.459 53.7307 192.193 53.7307C194.826 53.7307 197.176 54.2974 199.243 55.4307C201.343 56.5641 202.959 58.1807 204.093 60.2807C205.259 62.3474 205.843 64.7307 205.843 67.4307ZM198.593 65.4307C198.559 63.6307 197.909 62.1974 196.643 61.1307C195.376 60.0307 193.826 59.4807 191.993 59.4807C190.259 59.4807 188.793 60.0141 187.593 61.0807C186.426 62.1141 185.709 63.5641 185.443 65.4307H198.593ZM249.352 54.1807L241.252 81.8807H233.702L228.652 62.5307L223.602 81.8807H216.002L207.852 54.1807H214.952L219.852 75.2807L225.152 54.1807H232.552L237.752 75.2307L242.652 54.1807H249.352ZM263.739 82.3307C261.473 82.3307 259.439 81.9307 257.639 81.1307C255.839 80.2974 254.406 79.1807 253.339 77.7807C252.306 76.3807 251.739 74.8307 251.639 73.1307H258.689C258.823 74.1974 259.339 75.0807 260.239 75.7807C261.173 76.4807 262.323 76.8307 263.689 76.8307C265.023 76.8307 266.056 76.5641 266.789 76.0307C267.556 75.4974 267.939 74.8141 267.939 73.9807C267.939 73.0807 267.473 72.4141 266.539 71.9807C265.639 71.5141 264.189 71.0141 262.189 70.4807C260.123 69.9807 258.423 69.4641 257.089 68.9307C255.789 68.3974 254.656 67.5807 253.689 66.4807C252.756 65.3807 252.289 63.8974 252.289 62.0307C252.289 60.4974 252.723 59.0974 253.589 57.8307C254.489 56.5641 255.756 55.5641 257.389 54.8307C259.056 54.0974 261.006 53.7307 263.239 53.7307C266.539 53.7307 269.173 54.5641 271.139 56.2307C273.106 57.8641 274.189 60.0807 274.389 62.8807H267.689C267.589 61.7807 267.123 60.9141 266.289 60.2807C265.489 59.6141 264.406 59.2807 263.039 59.2807C261.773 59.2807 260.789 59.5141 260.089 59.9807C259.423 60.4474 259.089 61.0974 259.089 61.9307C259.089 62.8641 259.556 63.5807 260.489 64.0807C261.423 64.5474 262.873 65.0307 264.839 65.5307C266.839 66.0307 268.489 66.5474 269.789 67.0807C271.089 67.6141 272.206 68.4474 273.139 69.5807C274.106 70.6807 274.606 72.1474 274.639 73.9807C274.639 75.5807 274.189 77.0141 273.289 78.2807C272.423 79.5474 271.156 80.5474 269.489 81.2807C267.856 81.9807 265.939 82.3307 263.739 82.3307ZM287.386 44.8807V81.8807H280.386V44.8807H287.386ZM320.802 54.1807L303.652 94.9807H296.202L302.202 81.1807L291.102 54.1807H298.952L306.102 73.5307L313.352 54.1807H320.802Z" fill="#5D00A9"/>
</svg>
