<svg width="128" height="128" viewBox="0 0 128 128" fill="none" xmlns="http://www.w3.org/2000/svg">
<rect width="128" height="128" rx="15" fill="white"/>
<path d="M37.2299 95.3724C44.9201 101.401 54.5571 104.694 64.4988 104.694C70.1452 104.709 75.7391 103.653 80.9569 101.589C86.1743 99.5246 90.9127 96.4917 94.8974 92.6649C101.934 85.9435 106.316 77.0957 107.293 67.6274C108.269 58.159 105.778 48.6622 100.247 40.7559C94.717 32.8501 86.4917 27.0251 76.9762 24.2678C67.4609 21.5107 57.2394 21.9902 48.052 25.6254C38.8642 29.2607 31.275 35.8287 26.582 44.2156C21.8887 52.6031 20.3841 62.2881 22.3272 71.619C24.2702 80.9497 29.5391 89.3433 37.2299 95.3724ZM22.8248 63.597C22.8248 41.6802 41.4989 23.8101 64.5001 23.8101C87.5014 23.8101 106.176 41.6802 106.176 63.597C106.176 85.5138 87.5014 103.384 64.5001 103.384C41.4989 103.384 22.8248 85.5138 22.8248 63.597Z" fill="#2F2E41" stroke="black"/>
<path d="M92.6141 39.1344C97.2585 39.1344 101.024 35.5226 101.024 31.0672C101.024 26.6118 97.2585 23 92.6141 23C87.9696 23 84.2045 26.6118 84.2045 31.0672C84.2045 35.5226 87.9696 39.1344 92.6141 39.1344Z" fill="#3F3D56"/>
<path d="M87.2344 79.0785L87.2295 79.0809L65.5105 90.6823L41.7277 79.2751L41.3179 79.0785L42.5522 55.3974L64.0293 40.7151L64.2663 40.8572L86.4939 54.2133L87.2344 79.0785Z" fill="#5D00A9"/>
<path opacity="0.3" d="M87.2293 79.0806L65.5104 90.682L41.7275 79.2748L62.7948 65.1064L87.2293 79.0806Z" fill="black"/>
<path opacity="0.1" d="M87.063 78.9945L62.6235 65.0227L64.0949 40.7732L86.3224 54.1293L87.063 78.9945Z" fill="black"/>
<path d="M42.2364 62.7048L42.1157 62.5409L63.8325 47.8364L86.7733 61.6339L86.6622 61.804L63.8393 48.0774L42.2364 62.7048Z" fill="#F2F2F2"/>
<path d="M41.8156 70.7504L41.6982 70.5845L63.3049 56.5125L63.3615 56.5433L86.7929 69.2825L86.6896 69.457L63.3148 56.7485L41.8156 70.7504Z" fill="#F2F2F2"/>
<path d="M50.0589 83.3298L49.9487 83.1593L71.7246 70.2155V45.4016H71.9337V70.3272L50.0589 83.3298Z" fill="#F2F2F2"/>
<path d="M58.6062 87.4292L58.4951 87.2593L79.4627 74.6435V50.0514H79.6718V74.7545L58.6062 87.4292Z" fill="#F2F2F2"/>
<path d="M79.384 83.3325L54.9985 70.3353L55.002 70.2728L56.2857 45.9329L56.4945 45.9431L55.2141 70.2205L79.4856 83.1571L79.384 83.3325Z" fill="#F2F2F2"/>
<path d="M71.7117 87.4325L47.6001 75.3115L47.6038 75.2472L49.0252 50.8951L49.234 50.9064L47.8166 75.1939L71.8088 87.2548L71.7117 87.4325Z" fill="#F2F2F2"/>
</svg>
