<svg width="362" height="134" viewBox="0 0 362 134" fill="none" xmlns="http://www.w3.org/2000/svg">
<rect width="362" height="134" rx="15" fill="white"/>
<path d="M66.5001 110C56.6676 110 47.1391 106.591 39.5384 100.353C31.9377 94.1152 26.735 85.435 24.8167 75.7914C22.8984 66.1477 24.3833 56.1373 29.0184 47.4657C33.6534 38.7941 41.1518 31.9979 50.2359 28.2352C59.32 24.4724 69.4278 23.9758 78.837 26.83C88.2462 29.6843 96.3747 35.7127 101.837 43.8882C107.3 52.0637 109.759 61.8804 108.795 71.6656C107.832 81.4509 103.505 90.5992 96.552 97.5519C92.6147 101.511 87.9313 104.649 82.7729 106.786C77.6145 108.923 72.0835 110.015 66.5001 110ZM66.5001 25.3246C43.2446 25.3246 24.3248 44.2444 24.3248 67.5C24.3248 90.7556 43.2446 109.675 66.5001 109.675C89.7557 109.675 108.676 90.7556 108.676 67.5C108.676 44.2444 89.7557 25.3246 66.5001 25.3246Z" fill="#2F2E41"/>
<path d="M94.6141 41.8907C99.2585 41.8907 103.024 38.1096 103.024 33.4453C103.024 28.7811 99.2585 25 94.6141 25C89.9696 25 86.2045 28.7811 86.2045 33.4453C86.2045 38.1096 89.9696 41.8907 94.6141 41.8907Z" fill="#3F3D56"/>
<path d="M89.2344 83.7073L89.2295 83.7098L67.5105 95.855L43.7277 83.9131L43.3179 83.7073L44.5522 58.9161L66.0293 43.5456L66.2663 43.6944L88.4939 57.6766L89.2344 83.7073Z" fill="#5D00A9"/>
<path opacity="0.3" d="M89.2293 83.7096L67.5104 95.8548L43.7275 83.9129L64.7948 69.0804L89.2293 83.7096Z" fill="black"/>
<path opacity="0.1" d="M89.063 83.619L64.6235 68.9923L66.0949 43.6061L88.3224 57.5883L89.063 83.619Z" fill="black"/>
<path d="M44.2364 66.5661L44.1157 66.3945L65.8325 51.0007L88.7733 65.445L88.6622 65.623L65.8393 51.253L44.2364 66.5661Z" fill="#F2F2F2"/>
<path d="M43.8156 74.9887L43.6982 74.815L65.3049 60.0834L65.3615 60.1156L88.7929 73.452L88.6896 73.6347L65.3148 60.3305L43.8156 74.9887Z" fill="#F2F2F2"/>
<path d="M52.0589 88.1577L51.9487 87.9792L73.7246 74.4287V48.4517H73.9337V74.5457L52.0589 88.1577Z" fill="#F2F2F2"/>
<path d="M60.6062 92.4494L60.4951 92.2715L81.4627 79.0644V53.3195H81.6718V79.1806L60.6062 92.4494Z" fill="#F2F2F2"/>
<path d="M81.384 88.1606L56.9985 74.5541L57.002 74.4887L58.2857 49.0078L58.4945 49.0185L57.2141 74.434L81.4856 87.977L81.384 88.1606Z" fill="#F2F2F2"/>
<path d="M73.7117 92.453L49.6001 79.7639L49.6038 79.6965L51.0252 54.2029L51.234 54.2147L49.8166 79.6407L73.8088 92.2669L73.7117 92.453Z" fill="#F2F2F2"/>
<path d="M173.175 85H166.175L150.325 61.05V85H143.325V50.05H150.325L166.175 74.05V50.05H173.175V85ZM205.843 70.55C205.843 71.55 205.776 72.45 205.643 73.25H185.393C185.559 75.25 186.259 76.8167 187.493 77.95C188.726 79.0833 190.243 79.65 192.043 79.65C194.643 79.65 196.493 78.5333 197.593 76.3H205.143C204.343 78.9667 202.809 81.1667 200.543 82.9C198.276 84.6 195.493 85.45 192.193 85.45C189.526 85.45 187.126 84.8667 184.993 83.7C182.893 82.5 181.243 80.8167 180.043 78.65C178.876 76.4833 178.293 73.9833 178.293 71.15C178.293 68.2833 178.876 65.7667 180.043 63.6C181.209 61.4333 182.843 59.7667 184.943 58.6C187.043 57.4333 189.459 56.85 192.193 56.85C194.826 56.85 197.176 57.4167 199.243 58.55C201.343 59.6833 202.959 61.3 204.093 63.4C205.259 65.4667 205.843 67.85 205.843 70.55ZM198.593 68.55C198.559 66.75 197.909 65.3167 196.643 64.25C195.376 63.15 193.826 62.6 191.993 62.6C190.259 62.6 188.793 63.1333 187.593 64.2C186.426 65.2333 185.709 66.6833 185.443 68.55H198.593ZM249.352 57.3L241.252 85H233.702L228.652 65.65L223.602 85H216.002L207.852 57.3H214.952L219.852 78.4L225.152 57.3H232.552L237.752 78.35L242.652 57.3H249.352ZM263.739 85.45C261.473 85.45 259.439 85.05 257.639 84.25C255.839 83.4167 254.406 82.3 253.339 80.9C252.306 79.5 251.739 77.95 251.639 76.25H258.689C258.823 77.3167 259.339 78.2 260.239 78.9C261.173 79.6 262.323 79.95 263.689 79.95C265.023 79.95 266.056 79.6833 266.789 79.15C267.556 78.6167 267.939 77.9333 267.939 77.1C267.939 76.2 267.473 75.5333 266.539 75.1C265.639 74.6333 264.189 74.1333 262.189 73.6C260.123 73.1 258.423 72.5833 257.089 72.05C255.789 71.5167 254.656 70.7 253.689 69.6C252.756 68.5 252.289 67.0167 252.289 65.15C252.289 63.6167 252.723 62.2167 253.589 60.95C254.489 59.6833 255.756 58.6833 257.389 57.95C259.056 57.2167 261.006 56.85 263.239 56.85C266.539 56.85 269.173 57.6833 271.139 59.35C273.106 60.9833 274.189 63.2 274.389 66H267.689C267.589 64.9 267.123 64.0333 266.289 63.4C265.489 62.7333 264.406 62.4 263.039 62.4C261.773 62.4 260.789 62.6333 260.089 63.1C259.423 63.5667 259.089 64.2167 259.089 65.05C259.089 65.9833 259.556 66.7 260.489 67.2C261.423 67.6667 262.873 68.15 264.839 68.65C266.839 69.15 268.489 69.6667 269.789 70.2C271.089 70.7333 272.206 71.5667 273.139 72.7C274.106 73.8 274.606 75.2667 274.639 77.1C274.639 78.7 274.189 80.1333 273.289 81.4C272.423 82.6667 271.156 83.6667 269.489 84.4C267.856 85.1 265.939 85.45 263.739 85.45ZM287.386 48V85H280.386V48H287.386ZM320.802 57.3L303.652 98.1H296.202L302.202 84.3L291.102 57.3H298.952L306.102 76.65L313.352 57.3H320.802Z" fill="#5D00A9"/>
</svg>
