<svg width="631" height="366" viewBox="0 0 631 366" fill="none" xmlns="http://www.w3.org/2000/svg">
<path d="M631 263.692H472.427V265.012H631V263.692Z" fill="#3F3D56"/>
<path d="M507.79 251.831L512.396 276.253L522.265 278.893L519.633 249.851L507.79 251.831Z" fill="#FBBEBE"/>
<path d="M563.06 251.831L567.666 276.253L577.535 278.893L574.903 249.851L563.06 251.831Z" fill="#FBBEBE"/>
<path d="M518.318 271.633C518.318 271.633 507.79 270.973 507.79 274.273C507.79 277.573 502.526 288.794 502.526 288.794C502.526 288.794 498.578 301.995 509.106 300.675C519.633 299.355 526.213 287.474 526.213 287.474L523.581 274.933L518.318 271.633Z" fill="#2F2E41"/>
<path d="M571.047 272.85C571.047 272.85 564.025 268.322 564.526 271.341C565.028 274.36 565.529 282.411 569.041 282.914C572.552 283.417 583.086 286.436 583.587 287.442C584.089 288.449 596.127 292.474 596.127 285.933C596.127 279.392 588.603 274.36 588.603 274.36L580.076 267.818C580.076 267.818 574.558 267.315 573.555 270.837C572.552 274.36 571.047 272.85 571.047 272.85Z" fill="#2F2E41"/>
<path d="M504.339 112.869C504.339 112.869 493.154 96.3678 489.206 101.648C485.258 106.929 499.076 116.829 499.076 116.829L504.339 112.869Z" fill="#FBBEBE"/>
<path d="M508.287 128.711C507.629 128.051 495.786 116.83 495.786 116.83L504.339 110.889L514.209 120.79L508.287 128.711Z" fill="#575A89"/>
<path d="M509.932 77.5564C509.932 77.5564 501.378 78.2165 502.036 85.477C502.694 92.7376 508.287 116.83 508.287 116.83L511.577 123.43C511.577 123.43 523.75 85.477 509.932 77.5564Z" fill="#575A89"/>
<path d="M510.59 54.4543L512.959 62.3749H542.634L543.489 53.7942L546.055 62.3749H549.871L550.727 53.7942L553.293 62.3749H557.307L553.533 53.2551C551.78 48.8954 550.447 44.377 549.554 39.7621C548.377 34.0315 545.265 28.8836 540.744 25.1871C536.223 21.4907 530.569 19.4719 524.737 19.4714C524.387 19.4714 524.039 19.4785 523.693 19.4926C507.06 20.1691 496.408 37.6417 502.79 53.0645L506.642 62.3749H509.801L510.59 54.4543Z" fill="#2F2E41"/>
<path d="M510.261 123.43C510.261 123.43 489.864 140.592 495.786 163.693C501.707 186.795 503.681 259.401 503.681 259.401L524.079 257.421V166.334L552.372 220.458L556.978 259.401L580.007 255.441L569.479 207.917L549.234 147.339L547.108 129.862L510.261 123.43Z" fill="#2F2E41"/>
<path d="M524.408 55.1146C532.039 55.1146 538.225 48.9088 538.225 41.2535C538.225 33.5982 532.039 27.3923 524.408 27.3923C516.776 27.3923 510.59 33.5982 510.59 41.2535C510.59 48.9088 516.776 55.1146 524.408 55.1146Z" fill="#FBBEBE"/>
<path d="M516.183 50.8242C516.183 50.8242 522.105 72.6059 518.815 75.2462C515.525 77.8864 541.844 66.6655 541.844 66.6655C541.844 66.6655 530.658 54.1244 531.974 48.844L516.183 50.8242Z" fill="#FBBEBE"/>
<path d="M540.528 62.0451C540.528 62.0451 529.993 71.1355 519.798 71.8707C519.798 71.8707 506.313 79.2065 506.971 79.8666C507.629 80.5266 509.603 89.7674 509.603 89.7674C509.603 89.7674 512.893 94.8638 512.893 105.609C512.893 106.929 508.287 125.41 508.287 125.41L547.108 130.691C547.108 130.691 557.636 96.3679 558.294 84.487C558.952 72.606 562.899 60.065 556.978 59.4049C551.056 58.7449 540.528 62.0451 540.528 62.0451Z" fill="#575A89"/>
<path d="M555.662 62.045C555.662 62.045 560.267 58.0847 562.899 67.3255C565.531 76.5662 576.059 105.609 573.427 111.549C570.795 117.49 555.004 143.892 555.004 143.892L547.108 138.611L562.899 108.909L553.688 87.7871L555.662 62.045Z" fill="#575A89"/>
<path d="M550.398 137.951C550.398 137.951 530 150.492 536.58 153.133C543.16 155.773 554.346 141.912 554.346 141.912L550.398 137.951Z" fill="#FBBEBE"/>
<path d="M509.274 25.4121V39.2733H514.538L516.512 33.3328L517.005 39.2733H531.645L533.619 33.3328L534.113 39.2733H540.199V25.4121H509.274Z" fill="#2F2E41"/>
<path opacity="0.2" d="M509.274 90.7573C509.274 90.7573 507.958 103.958 509.932 106.599C511.906 109.239 509.274 90.7573 509.274 90.7573Z" fill="black"/>
<path d="M395.444 321.116H116.462V322.437H395.444V321.116Z" fill="#3F3D56"/>
<path d="M378.475 220.861L297.531 302.061C285.156 314.473 268.373 321.446 250.874 321.446C233.374 321.446 216.591 314.473 204.216 302.061C203.124 300.965 202.071 299.836 201.071 298.675C199.423 296.787 197.887 294.803 196.472 292.734C191.28 285.201 187.729 276.654 186.05 267.652C185.675 265.692 185.392 263.711 185.201 261.712C184.997 259.58 184.894 257.428 184.892 255.256C184.886 249.183 185.709 243.138 187.339 237.289C187.899 235.276 188.554 233.296 189.307 231.349C192.63 222.757 197.708 214.957 204.216 208.452L239.53 173.027C241.381 171.17 243.891 170.127 246.508 170.127C249.125 170.127 251.635 171.17 253.486 173.027C255.336 174.883 256.376 177.401 256.376 180.026C256.376 182.652 255.336 185.17 253.486 187.026L218.172 222.451C215.504 225.124 213.168 228.112 211.217 231.349C206.884 238.564 204.606 246.833 204.631 255.256C204.632 257.415 204.779 259.572 205.072 261.712C205.347 263.717 205.755 265.702 206.296 267.652C208.452 275.471 212.614 282.587 218.368 288.287C224.122 293.988 231.266 298.076 239.087 300.141C246.908 302.206 255.132 302.178 262.938 300.058C270.745 297.938 277.86 293.802 283.575 288.061L303.92 267.652L340.108 231.349L364.519 206.861C372.195 199.14 376.919 188.958 377.865 178.095C378.812 167.233 375.921 156.383 369.698 147.443C368.232 145.288 367.674 142.64 368.143 140.074C368.613 137.509 370.072 135.232 372.205 133.74C374.337 132.247 376.971 131.659 379.533 132.103C382.096 132.546 384.38 133.986 385.89 136.11C394.758 148.866 398.874 164.343 397.519 179.836C396.163 195.328 389.422 209.849 378.475 220.861Z" fill="#3F3D56"/>
<path d="M505.326 66.1921C505.326 66.6805 505.32 67.169 505.307 67.6574C505.137 76.2978 503.275 84.8202 499.826 92.7394C498.942 94.7697 497.954 96.7526 496.865 98.6799C493.908 103.925 490.254 108.741 486.002 112.996L450.688 148.421C448.836 150.274 446.328 151.313 443.713 151.311C441.098 151.309 438.591 150.266 436.742 148.412C434.893 146.557 433.854 144.042 433.852 141.419C433.85 138.796 434.886 136.279 436.732 134.422L472.046 98.9967C472.151 98.8911 472.256 98.7855 472.355 98.6799C480.504 90.3828 485.222 79.3 485.561 67.6574C485.58 67.169 485.587 66.6805 485.587 66.1921C485.587 64.6872 485.517 63.1954 485.376 61.7169C484.346 51.0077 479.633 40.9919 472.046 33.3875C471.342 32.6812 470.625 32.0013 469.881 31.3545C461.44 23.9097 450.584 19.8036 439.344 19.8036C428.104 19.8036 417.249 23.9097 408.808 31.3545C408.064 32.0013 407.347 32.6812 406.643 33.3875L325.699 114.587C317.04 123.295 312.177 135.092 312.177 147.392C312.177 159.691 317.04 171.489 325.699 180.196C327.549 182.053 328.589 184.571 328.589 187.196C328.589 189.822 327.549 192.34 325.699 194.196C323.848 196.053 321.338 197.096 318.721 197.096C316.104 197.096 313.594 196.053 311.743 194.196C299.387 181.773 292.448 164.941 292.448 147.392C292.448 129.843 299.387 113.01 311.743 100.587L392.687 19.3877C399.729 12.3381 408.268 6.9753 417.666 3.69976C427.063 0.424214 437.077 -0.679461 446.959 0.471123C456.842 1.62171 466.337 4.99683 474.737 10.3445C483.137 15.6922 490.225 22.8742 495.47 31.3545C496.665 33.2748 497.756 35.2578 498.74 37.295C502.441 44.9408 504.627 53.2351 505.175 61.7169C505.274 63.202 505.324 64.6938 505.326 66.1921Z" fill="#3F3D56"/>
<path d="M82.4547 347.628C79.4405 358.805 69.116 365.728 69.116 365.728C69.116 365.728 63.6786 354.528 66.6928 343.35C69.7071 332.173 80.0316 325.25 80.0316 325.25C80.0316 325.25 85.469 336.45 82.4547 347.628Z" fill="#5D00A9"/>
<path d="M55.0335 347.628C58.0477 358.805 68.3722 365.728 68.3722 365.728C68.3722 365.728 73.8096 354.528 70.7954 343.35C67.7811 332.173 57.4566 325.25 57.4566 325.25C57.4566 325.25 52.0192 336.45 55.0335 347.628Z" fill="#5D00A9"/>
<path d="M59.4627 345.225C67.7338 353.303 68.7441 365.719 68.7441 365.719C68.7441 365.719 56.3442 365.04 48.073 356.963C39.8019 348.886 38.7916 336.469 38.7916 336.469C38.7916 336.469 51.1915 337.148 59.4627 345.225Z" fill="#3F3D56"/>
<path d="M78.0255 345.225C69.7544 353.303 68.7441 365.719 68.7441 365.719C68.7441 365.719 81.144 365.04 89.4152 356.963C97.6863 348.886 98.6966 336.469 98.6966 336.469C98.6966 336.469 86.2967 337.148 78.0255 345.225Z" fill="#3F3D56"/>
<path d="M449.398 65.0154C449.398 65.9021 449.31 66.7865 449.135 67.6557C448.528 70.6371 446.913 73.3167 444.563 75.2411C442.213 77.1654 439.272 78.2165 436.239 78.2165C433.205 78.2165 430.265 77.1654 427.915 75.2411C425.565 73.3167 423.95 70.6371 423.342 67.6557C422.946 65.6893 422.998 63.6586 423.494 61.7152C424.292 58.6011 426.196 55.8863 428.847 54.0803C431.499 52.2744 434.717 51.5014 437.897 51.9065C441.076 52.3116 443.999 53.8669 446.117 56.2805C448.235 58.6941 449.401 61.8001 449.398 65.0154Z" fill="#3F3D56"/>
<path d="M255.295 265.012C255.295 265.898 255.207 266.783 255.032 267.652C254.425 270.633 252.809 273.313 250.459 275.237C248.109 277.162 245.169 278.213 242.136 278.213C239.102 278.213 236.162 277.162 233.812 275.237C231.462 273.313 229.847 270.633 229.239 267.652C228.843 265.685 228.895 263.655 229.391 261.711C230.189 258.597 232.092 255.882 234.744 254.076C237.396 252.27 240.614 251.497 243.794 251.903C246.973 252.308 249.896 253.863 252.014 256.277C254.132 258.69 255.298 261.796 255.295 265.012Z" fill="#3F3D56"/>
<path d="M151.993 364.68H0V366H151.993V364.68Z" fill="#3F3D56"/>
<path d="M380.758 31.3525H408.808C408.064 31.9994 407.347 32.6792 406.643 33.3855L402.748 37.293H374.836L380.758 31.3525Z" fill="#5D00A9"/>
<path d="M498.74 37.293H475.527C474.441 35.9257 473.279 34.6211 472.046 33.3855C471.342 32.6792 470.625 31.9994 469.881 31.3525H495.47C496.665 33.2729 497.756 35.2558 498.74 37.293Z" fill="#5D00A9"/>
<path d="M350.491 61.7151H378.403L372.481 67.6556H344.569L350.491 61.7151Z" fill="#5D00A9"/>
<path d="M448.984 61.7151C449.48 63.6585 449.531 65.6893 449.135 67.6556H423.342C422.946 65.6893 422.998 63.6585 423.494 61.7151H448.984Z" fill="#5D00A9"/>
<path d="M505.326 66.1903C505.326 66.6787 505.32 67.1671 505.307 67.6556H485.561C485.58 67.1671 485.587 66.6787 485.587 66.1903C485.587 64.6853 485.517 63.1936 485.376 61.7151H505.175C505.274 63.2002 505.324 64.6919 505.326 66.1903Z" fill="#5D00A9"/>
<path d="M499.826 92.7375C498.942 94.7678 497.954 96.7507 496.865 98.678H472.355C474.162 96.8406 475.81 94.8534 477.283 92.7375H499.826Z" fill="#5D00A9"/>
<path d="M211.217 231.349C210.073 233.254 209.068 235.239 208.21 237.289H187.339C187.899 235.276 188.554 233.296 189.307 231.349H211.217Z" fill="#5D00A9"/>
<path d="M368.02 231.349L362.098 237.289H334.187L340.108 231.349H368.02Z" fill="#5D00A9"/>
<path d="M206.296 267.652H186.05C185.675 265.692 185.392 263.711 185.201 261.711H205.072C205.346 263.717 205.755 265.702 206.296 267.652Z" fill="#5D00A9"/>
<path d="M255.295 265.012C255.295 265.898 255.207 266.783 255.032 267.652H229.239C228.843 265.686 228.895 263.655 229.391 261.711H254.881C255.156 262.79 255.295 263.899 255.295 265.012Z" fill="#5D00A9"/>
<path d="M337.753 261.711L331.831 267.652H303.92L309.841 261.711H337.753Z" fill="#5D00A9"/>
<path d="M234.529 298.674H201.071C199.423 296.787 197.887 294.803 196.472 292.734H223.607C226.962 295.203 230.636 297.201 234.529 298.674Z" fill="#5D00A9"/>
<path d="M306.828 292.734L300.906 298.674H267.218C271.111 297.201 274.785 295.203 278.14 292.734H306.828Z" fill="#5D00A9"/>
<path d="M207.654 112.034C202.623 103.507 192.671 103.11 192.671 103.11C192.671 103.11 182.973 101.865 176.751 114.852C170.953 126.956 162.95 138.643 175.463 141.477L177.723 134.42L179.123 142.002C180.905 142.131 182.692 142.162 184.477 142.094C197.878 141.66 210.64 142.221 210.229 137.397C209.683 130.985 212.494 120.238 207.654 112.034Z" fill="#2F2E41"/>
<path d="M171.403 300.325L172.061 317.486H183.905L183.247 299.005L171.403 300.325Z" fill="#FBBEBE"/>
<path d="M203.644 178.875L202.446 182.868L186.931 234.57L185.221 240.26L186.536 300.985L170.087 302.965C170.087 302.965 169.607 296.589 168.903 287.176C167.488 268.536 165.172 237.969 163.83 221.336C163.336 215.184 162.981 210.94 162.849 209.897C162.191 204.617 170.745 178.215 170.745 178.215L187.852 176.895L203.644 178.875Z" fill="#2F2E41"/>
<path d="M175.351 315.506C175.351 315.506 170.745 310.225 170.087 314.186C169.429 318.146 161.533 333.327 161.533 333.327C161.533 333.327 138.504 348.509 158.244 349.829C158.244 349.829 168.113 348.509 171.403 343.228C171.403 343.228 176.667 339.928 177.983 339.928C179.299 339.928 187.194 337.288 185.879 333.327C184.563 329.367 185.221 314.846 185.221 314.846L175.351 315.506Z" fill="#2F2E41"/>
<path d="M174.693 284.483L180.615 295.704L189.826 291.084L183.905 277.883L174.693 284.483Z" fill="#FBBEBE"/>
<path opacity="0.2" d="M170.087 252.141C170.087 252.141 165.179 241.382 163.836 224.748C173.364 214.069 184.892 202.306 184.892 202.306L198.709 201.646L202.986 201.316C203.986 211.349 195.524 224.273 186.931 234.57C181.709 240.793 176.082 246.663 170.087 252.141Z" fill="black"/>
<path d="M187.194 201.976C187.194 201.976 145.084 238.94 151.006 254.121C156.928 269.302 173.377 287.784 173.377 287.784L186.086 280.174L174.035 252.141C174.035 252.141 179.087 247.646 185.236 240.987C195.243 230.151 208.156 213.581 206.934 201.316L206.276 178.875L195.09 180.195L187.194 201.976Z" fill="#2F2E41"/>
<path d="M183.247 293.064C183.247 293.064 178.641 293.064 179.299 297.025C179.957 300.985 181.273 307.585 181.273 307.585C181.273 307.585 176.009 338.608 188.51 331.347C201.012 324.087 197.722 304.945 197.722 304.945C197.722 304.945 202.328 293.064 196.406 291.744C190.484 290.424 188.51 289.104 187.852 289.764C187.194 290.424 183.247 293.064 183.247 293.064Z" fill="#2F2E41"/>
<path d="M192.458 131.351C198.999 131.351 204.302 126.032 204.302 119.47C204.302 112.908 198.999 107.589 192.458 107.589C185.917 107.589 180.615 112.908 180.615 119.47C180.615 126.032 185.917 131.351 192.458 131.351Z" fill="#FBBEBE"/>
<path d="M187.852 124.09C187.852 124.09 193.116 137.951 191.142 138.611C189.168 139.272 185.221 142.572 185.221 142.572L191.8 148.512L208.908 139.272C208.908 139.272 201.012 128.711 201.67 124.09H187.852Z" fill="#FBBEBE"/>
<path d="M208.908 136.631C208.908 136.631 195.14 143.44 190.18 139.045C190.18 139.045 181.931 138.611 180.615 143.232C179.299 147.852 181.931 151.812 178.641 153.132C175.351 154.453 173.048 158.083 175.022 164.023C176.996 169.964 176.667 170.954 174.035 172.934C171.403 174.914 168.771 178.875 168.771 180.195C168.771 181.515 166.139 181.515 167.455 182.835C168.771 184.155 166.139 182.835 168.771 184.155C171.403 185.475 178.641 173.594 183.905 179.535C189.168 185.475 205.618 195.376 206.934 189.435C208.25 183.495 212.198 168.974 212.198 168.974C212.198 168.974 226.015 143.232 222.067 140.591C218.119 137.951 208.908 136.631 208.908 136.631Z" fill="#CFCCE0"/>
<path d="M206.934 182.835C206.934 182.835 199.696 181.515 197.722 186.135C195.748 190.756 184.563 201.317 191.8 201.977C199.038 202.637 204.302 190.756 204.302 190.756L211.54 189.436L206.934 182.835Z" fill="#FBBEBE"/>
<path d="M214.172 140.592L222.777 141.072C222.777 141.072 226.673 145.212 227.331 149.172C227.989 153.133 240.491 182.835 232.595 186.135C224.699 189.436 207.592 191.416 207.592 191.416L205.618 182.175L216.803 178.215L208.908 161.713L214.172 140.592Z" fill="#CFCCE0"/>
<path opacity="0.2" d="M175.022 252.471L185.845 279.614L173.048 252.471L184.234 240.59L175.022 252.471Z" fill="black"/>
<path opacity="0.2" d="M168.536 282.349L173.048 288.114H169.758L168.536 282.349Z" fill="black"/>
<path d="M193.889 110.372C197.863 110.372 201.085 107.14 201.085 103.153C201.085 99.1658 197.863 95.9338 193.889 95.9338C189.914 95.9338 186.693 99.1658 186.693 103.153C186.693 107.14 189.914 110.372 193.889 110.372Z" fill="#2F2E41"/>
<path d="M185.935 101.253C185.935 99.4704 186.593 97.7506 187.782 96.4253C188.971 95.0999 190.606 94.2628 192.374 94.075C192.122 94.0483 191.869 94.0347 191.616 94.0344C190.671 94.0335 189.734 94.2196 188.86 94.582C187.986 94.9443 187.192 95.4759 186.523 96.1463C185.854 96.8168 185.324 97.6129 184.962 98.4892C184.6 99.3655 184.413 100.305 184.413 101.253C184.413 102.202 184.6 103.141 184.962 104.017C185.324 104.894 185.854 105.69 186.523 106.36C187.192 107.031 187.986 107.562 188.86 107.925C189.734 108.287 190.671 108.473 191.616 108.472C191.869 108.472 192.122 108.458 192.374 108.432C190.606 108.244 188.971 107.407 187.782 106.081C186.593 104.756 185.935 103.036 185.935 101.253Z" fill="#2F2E41"/>
<path d="M205.43 111.212L195.597 106.046L182.019 108.159L179.209 120.606L186.203 120.336L188.156 115.763V120.261L191.383 120.136L193.256 112.856L194.426 120.606L205.897 120.371L205.43 111.212Z" fill="#2F2E41"/>
<path d="M327.673 85.147H355.584L349.662 91.0874H321.751L327.673 85.147Z" fill="#5D00A9"/>
</svg>
