<svg width="552" height="452" viewBox="0 0 552 452" fill="none" xmlns="http://www.w3.org/2000/svg">
<g clip-path="url(#clip0_67:24)">
<path opacity="0.1" d="M323.729 76.3858C288.801 75.1351 255.53 63.5232 223.765 50.8164C192 38.1095 160.537 24.0297 126.446 17.2982C104.519 12.9681 79.44 12.3567 61.7765 24.4632C44.7714 36.1362 39.2775 56.2304 36.3255 74.8961C34.102 88.937 32.796 103.712 38.8889 116.858C43.1146 125.985 50.6215 133.656 55.8077 142.427C73.8706 172.843 61.1073 210.353 41.5333 240.052C32.3589 253.987 21.7003 267.289 14.6198 282.108C7.5393 296.927 4.25808 313.931 10.4535 329.061C16.6004 344.069 31.2418 355.32 47.0974 363.241C79.3105 379.333 117.255 383.935 154.282 386.542C236.221 392.318 318.591 389.816 400.746 387.315C431.151 386.387 461.686 385.447 491.594 380.606C508.205 377.916 525.351 373.652 537.413 363.347C552.718 350.267 556.512 328.116 546.258 311.719C529.048 284.209 481.497 277.378 469.452 247.851C462.835 231.603 469.635 213.504 479.252 198.43C499.889 166.101 534.477 137.736 536.301 100.782C537.553 75.3963 520.92 49.9826 495.21 37.9705C468.264 25.3359 430.886 26.9368 411.016 47.7758C390.54 69.2486 354.566 77.4864 323.729 76.3858Z" fill="#5D00A9"/>
<path d="M235.001 383.819L50.2814 382.89L31.9271 338.55L96.8283 333.697L85.5167 285.082L213.884 267.945L90.962 223.932L101.82 221.275L299.476 254.488L288.591 330.356L273.032 372.051L235.001 383.819Z" fill="#5D00A9"/>
<path d="M53.1147 364.319C53.1147 364.319 64.4479 362.452 71.2478 370.7C71.2478 370.7 66.2612 374.747 55.5325 369.144L53.1147 364.319Z" fill="#5D00A9"/>
<path d="M51.9274 364.136C51.9274 364.136 44.6957 373.302 48.2576 383.507C48.2576 383.507 54.1508 381.078 54.793 368.705L51.9274 364.136Z" fill="#5D00A9"/>
<path d="M45.4297 349.067C45.4297 349.067 49.9629 340.501 68.096 352.491C68.096 352.491 65.6783 358.249 57.6695 357.782C49.6607 357.315 47.5452 353.58 45.4297 349.067Z" fill="#5D00A9"/>
<path d="M44.2586 348.45C44.2586 348.45 34.8521 347.338 33.9401 369.517C33.9401 369.517 39.9035 370.789 44.1399 363.775C48.3763 356.76 46.6386 352.824 44.2586 348.45Z" fill="#5D00A9"/>
<path d="M38.781 330.757C38.781 330.757 44.0698 315.66 63.2606 326.399C63.2606 326.399 58.8785 340.251 40.7454 335.893L38.781 330.757Z" fill="#5D00A9"/>
<path d="M32.8877 308.189C32.8877 308.189 42.8609 292.936 60.5406 307.077C60.5406 307.077 54.3451 321.396 34.3988 313.614L32.8877 308.189Z" fill="#5D00A9"/>
<path d="M30.7722 286.711C30.7722 286.711 42.4076 272.697 59.9146 286.711C59.9146 286.711 48.8837 299.006 30.7722 290.29V286.711Z" fill="#5D00A9"/>
<path d="M28.9589 265.849C28.9589 265.849 40.7453 251.219 57.5184 265.071C57.5184 265.071 44.2208 277.989 28.9589 269.273V265.849Z" fill="#5D00A9"/>
<path d="M30.0166 247.328C30.0166 247.328 42.4291 228.496 58.1228 241.258C58.1228 241.258 44.8253 257.445 30.0166 250.908V247.328Z" fill="#5D00A9"/>
<path d="M32.8877 225.694C32.8877 225.694 46.0341 207.017 61.2961 221.336C61.2961 221.336 45.7319 237.523 32.8877 229.118V225.694Z" fill="#5D00A9"/>
<path d="M37.2698 206.356C37.2698 206.356 52.834 188.802 66.4122 195.795C66.4122 195.795 50.195 214.438 36.5898 211.014L37.2698 206.356Z" fill="#5D00A9"/>
<path d="M42.7098 188.024C42.7098 188.024 60.6701 166.523 71.1182 173.705C71.1182 173.705 57.8854 190.381 41.4362 192.048L42.7098 188.024Z" fill="#5D00A9"/>
<path d="M50.562 166.762C50.562 166.762 66.2827 149.209 77.767 153.566C77.767 153.566 64.3183 171.776 48.4519 172.243L50.562 166.762Z" fill="#5D00A9"/>
<path d="M57.6696 146.874C57.6696 146.874 75.0471 130.065 82.6025 133.022C82.6025 133.022 70.0605 151.699 56.9141 150.609L57.6696 146.874Z" fill="#5D00A9"/>
<path d="M64.6206 128.508C64.6206 128.508 79.5804 108.425 87.7456 109.982C87.7456 109.982 78.6737 127.886 64.6206 130.548V128.508Z" fill="#5D00A9"/>
<path d="M72.1652 103.745C72.1652 103.745 85.3872 88.3534 92.5325 88.3867C92.5325 88.3867 82.0952 108.953 71.6201 108.764L72.1652 103.745Z" fill="#5D00A9"/>
<path d="M76.6337 87.2583L89.4078 55.1966C89.4078 55.1966 90.0446 84.1789 75.0093 93.206L76.6337 87.2583Z" fill="#5D00A9"/>
<path d="M81.82 51.9004C81.82 51.9004 83.9355 25.1248 82.5755 22.9458C82.5755 22.9458 91.7068 45.2079 81.7336 63.729L81.82 51.9004Z" fill="#5D00A9"/>
<path d="M38.2845 330.401C38.2845 330.401 25.0409 321.946 16.4655 342.63C16.4655 342.63 28.2519 350.69 39.8441 335.676L38.2845 330.401Z" fill="#5D00A9"/>
<path d="M32.4614 307.327C32.4614 307.327 16.2173 299.695 8.33801 321.29C8.33801 321.29 20.8854 330.184 33.9401 312.786L32.4614 307.327Z" fill="#5D00A9"/>
<path d="M30.0166 287.995C30.0166 287.995 18.3813 273.981 0.874268 287.995C0.874268 287.995 11.9052 300.29 30.0166 291.574V287.995Z" fill="#5D00A9"/>
<path d="M28.5595 265.849C28.5595 265.849 16.7731 251.219 0 265.071C0 265.071 13.2976 277.989 28.5595 269.273V265.849Z" fill="#5D00A9"/>
<path d="M30.0166 247.862C30.0166 247.862 21.7488 226.767 3.77771 235.839C3.77771 235.839 13.4918 254.543 29.2827 251.364L30.0166 247.862Z" fill="#5D00A9"/>
<path d="M33.9292 225.589C33.9292 225.589 25.71 204.127 7.48523 214.077C7.48523 214.077 18.6457 233.749 33.1197 228.902L33.9292 225.589Z" fill="#5D00A9"/>
<path d="M39.0238 206.462C39.0238 206.462 35.7858 182.932 20.6749 180.826C20.6749 180.826 23.8806 205.639 36.9893 210.703L39.0238 206.462Z" fill="#5D00A9"/>
<path d="M43.0929 188.068C43.0929 188.068 41.8301 159.72 29.3367 158.73C29.3367 158.73 29.7576 180.247 41.6844 192.082L43.0929 188.068Z" fill="#5D00A9"/>
<path d="M51.8572 165.967C51.8572 165.967 48.1335 142.394 36.2067 139.514C36.2067 139.514 37.6854 162.343 50.6753 171.754L51.8572 165.967Z" fill="#5D00A9"/>
<path d="M59.0835 147.068C59.0835 147.068 58.9594 122.511 51.6738 118.903C51.6738 118.903 47.1567 141.137 56.9734 150.203L59.0835 147.068Z" fill="#5D00A9"/>
<path d="M65.1764 128.23C65.1764 128.23 64.1564 102.945 56.6118 99.3815C56.6118 99.3815 54.0321 119.392 64.0485 129.887L65.1764 128.23Z" fill="#5D00A9"/>
<path d="M73.2175 105.763C73.2175 105.763 73.1743 85.1961 67.7884 80.3713C67.7884 80.3713 62.4348 102.9 70.4058 109.898L73.2175 105.763Z" fill="#5D00A9"/>
<path d="M76.0022 86.2466L70.762 52.017C70.762 52.017 63.6437 80.0655 76.2505 92.4277L76.0022 86.2466Z" fill="#5D00A9"/>
<path d="M77.0222 52.2226C77.0222 52.2226 63.5735 29.2102 63.8488 26.6533C63.8488 26.6533 65.2789 50.7719 82.1977 62.7839L77.0222 52.2226Z" fill="#5D00A9"/>
<path d="M78.5981 45.4245C78.5981 45.4245 65.905 12.7402 60.1628 10.0943C60.1628 10.0943 78.2959 19.5883 79.6559 44.4907L78.5981 45.4245Z" fill="#5D00A9"/>
<path d="M71.5554 108.959L70.6865 108.687C81.3991 72.706 84.0704 49.7658 78.215 44.0127L78.8356 43.3346C85.0473 49.4045 82.527 72.0946 71.5554 108.959Z" fill="#444053"/>
<path d="M42.0568 193.204L40.7723 192.732C41.9111 189.436 43.1361 186.09 44.4205 182.793C55.6026 154.089 65.1224 127.386 71.2261 106.886L72.3433 106.33C66.2288 126.869 56.8762 154.595 45.6834 183.338C44.4043 186.573 43.1847 189.903 42.0568 193.204Z" fill="#444053"/>
<path d="M69.0837 391.245C68.911 391.05 51.5497 370.912 39.4448 336.532C32.352 316.404 28.4047 295.245 27.75 273.843C26.9189 247.089 32.3697 217.217 41.706 190.081L42.7206 191.303C21.7597 252.209 30.0868 304.398 41.134 335.826C53.1093 369.894 70.2763 389.811 70.4436 390.011L69.0837 391.245Z" fill="#444053"/>
<path d="M340.388 348.488C340.388 348.488 328.154 363.869 337.868 387.12L240.187 430.755L230.813 432.779L226.496 413.324L229.383 388.771V375.353L340.388 348.488Z" fill="#D5D6DB"/>
<path d="M31.9271 338.55L167.126 313.164L346.271 342.557L235.001 383.819L31.9271 338.55Z" fill="#5D00A9"/>
<path d="M31.9271 338.55L167.126 313.164L346.271 342.557L235.001 383.819L31.9271 338.55Z" fill="#5D00A9"/>
<path d="M31.9271 338.544C31.9271 338.544 19.2825 363.219 33.8537 386.009L234.343 430.755C234.343 430.755 221.898 411.1 234.985 383.819L31.9271 338.544Z" fill="#5D00A9"/>
<path opacity="0.1" d="M31.9271 338.544C31.9271 338.544 19.2825 363.219 33.8537 386.009L234.343 430.755C234.343 430.755 221.898 411.1 234.985 383.819L31.9271 338.544Z" fill="black"/>
<path opacity="0.1" d="M37.9014 347.099C37.9014 347.099 30.6751 365.153 37.9014 376.837V347.099Z" fill="black"/>
<path d="M234.343 430.755L346.271 381.562C346.271 381.562 352.531 382.952 348.484 387.676C344.436 392.401 236.501 435.48 236.501 435.48L33.8538 386.009L234.343 430.755Z" fill="#5D00A9"/>
<path opacity="0.1" d="M234.343 430.755L346.271 381.562C346.271 381.562 352.531 382.952 348.484 387.676C344.436 392.401 236.501 435.48 236.501 435.48L33.8538 386.009L234.343 430.755Z" fill="black"/>
<path opacity="0.1" d="M225.168 388.788C225.168 388.788 214.375 402.129 225.168 422.139V388.788Z" fill="black"/>
<path opacity="0.1" d="M277.423 388.562L229.01 405.199L229.18 405.726L277.594 389.09L277.423 388.562Z" fill="black"/>
<path opacity="0.1" d="M287.12 386.907L228.994 409.673L229.186 410.192L287.312 387.426L287.12 386.907Z" fill="black"/>
<path opacity="0.1" d="M296.026 386.827L229.319 414.95L229.523 415.465L296.23 387.342L296.026 386.827Z" fill="black"/>
<path opacity="0.1" d="M305.71 384.419L230.097 419.599L230.319 420.106L305.932 384.925L305.71 384.419Z" fill="black"/>
<path opacity="0.1" d="M313.846 384.43L230.696 421.865L230.912 422.374L314.062 384.94L313.846 384.43Z" fill="black"/>
<path opacity="0.1" d="M331.642 381.318L231.95 425.667L232.164 426.177L331.856 381.828L331.642 381.318Z" fill="black"/>
<path opacity="0.3" d="M82.1545 341.262L177.137 320.696L235.001 332.091L157.169 357.938L82.1545 341.262Z" fill="white"/>
<path d="M346.271 342.557C346.271 342.557 351.182 344.597 348.3 347.749C345.418 350.901 234.985 383.819 234.985 383.819L346.271 342.557Z" fill="#5D00A9"/>
<path d="M393.973 295.026C393.973 295.026 381.744 310.401 391.458 333.658L293.777 377.293L284.403 379.327L280.085 359.873L283.016 335.326V321.891L393.973 295.026Z" fill="#D5D6DB"/>
<path d="M85.5167 285.082L220.71 259.702L399.861 289.095L288.591 330.356L85.5167 285.082Z" fill="#3A3768"/>
<path d="M85.4952 285.082C85.4952 285.082 72.8452 309.756 87.4164 332.546L287.905 377.293C287.905 377.293 275.466 357.621 288.569 330.351L85.4952 285.082Z" fill="#3A3768"/>
<path opacity="0.1" d="M85.4952 285.082C85.4952 285.082 72.8452 309.756 87.4164 332.546L287.905 377.293C287.905 377.293 275.466 357.621 288.569 330.351L225.168 316.215L85.4952 285.082Z" fill="black"/>
<path opacity="0.1" d="M91.4855 293.637C91.4855 293.637 84.2647 311.685 91.4855 323.375V293.637Z" fill="black"/>
<path d="M287.927 377.293L399.861 328.1C399.861 328.1 406.115 329.489 402.068 334.214C398.02 338.939 290.085 382.018 290.085 382.018L87.438 332.547L287.927 377.293Z" fill="#3A3768"/>
<path opacity="0.1" d="M287.927 377.293L399.861 328.1C399.861 328.1 406.115 329.489 402.068 334.214C398.02 338.939 290.085 382.018 290.085 382.018L87.438 332.547L287.927 377.293Z" fill="black"/>
<path opacity="0.1" d="M278.752 335.326C278.752 335.326 267.959 348.666 278.752 368.677V335.326Z" fill="black"/>
<path opacity="0.1" d="M331.012 335.106L282.598 351.742L282.769 352.27L331.182 335.633L331.012 335.106Z" fill="black"/>
<path opacity="0.1" d="M340.715 333.448L282.589 356.214L282.781 356.733L340.907 333.967L340.715 333.448Z" fill="black"/>
<path opacity="0.1" d="M349.613 333.36L282.906 361.483L283.11 361.998L349.818 333.875L349.613 333.36Z" fill="black"/>
<path opacity="0.1" d="M359.303 330.953L283.691 366.134L283.913 366.64L359.526 331.46L359.303 330.953Z" fill="black"/>
<path opacity="0.1" d="M367.432 330.958L284.282 368.392L284.498 368.902L367.648 331.467L367.432 330.958Z" fill="black"/>
<path opacity="0.1" d="M385.232 327.845L285.54 372.194L285.754 372.704L385.446 328.355L385.232 327.845Z" fill="black"/>
<path opacity="0.45" d="M135.744 287.8L230.727 267.233L288.591 278.629L210.759 304.476L135.744 287.8Z" fill="white"/>
<path d="M399.861 289.095C399.861 289.095 404.766 291.135 401.89 294.281C399.013 297.428 288.591 330.351 288.591 330.351L399.861 289.095Z" fill="#3A3768"/>
<path d="M399.046 233.865C399.046 233.865 386.811 261.475 396.525 284.726L298.844 316.132L289.492 318.172L285.174 298.717L288.062 274.165V260.73L399.046 233.865Z" fill="#D5D6DB"/>
<path d="M90.6058 223.927L225.805 198.541L404.955 227.934L293.68 269.196L90.6058 223.927Z" fill="#5D00A9"/>
<path d="M90.6058 223.921C90.6058 223.921 77.9397 248.596 92.5109 271.386L293 316.132C293 316.132 280.555 296.46 293.658 269.196L90.6058 223.921Z" fill="#5D00A9"/>
<path opacity="0.1" d="M90.6058 223.921C90.6058 223.921 77.9397 248.596 92.5109 271.386L293 316.132C293 316.132 280.555 296.46 293.658 269.196L90.6058 223.921Z" fill="black"/>
<path opacity="0.1" d="M96.5801 232.476C96.5801 232.476 89.3538 250.53 96.5801 262.214V232.476Z" fill="black"/>
<path d="M293.021 316.132L404.95 279.168C404.95 279.168 411.21 280.557 407.162 285.282C403.115 290.007 295.18 320.857 295.18 320.857L92.5325 271.386L293.021 316.132Z" fill="#5D00A9"/>
<path opacity="0.1" d="M293.021 316.132L404.95 279.168C404.95 279.168 411.21 280.557 407.162 285.282C403.115 290.007 295.18 320.857 295.18 320.857L92.5325 271.386L293.021 316.132Z" fill="black"/>
<path opacity="0.1" d="M283.847 274.165C283.847 274.165 273.053 287.506 283.847 307.516V274.165Z" fill="black"/>
<path opacity="0.1" d="M336.108 273.944L287.694 290.58L287.865 291.108L336.278 274.471L336.108 273.944Z" fill="black"/>
<path opacity="0.1" d="M345.808 272.289L287.682 295.055L287.874 295.574L346 272.808L345.808 272.289Z" fill="black"/>
<path opacity="0.1" d="M354.7 272.204L287.993 300.327L288.198 300.841L354.905 272.718L354.7 272.204Z" fill="black"/>
<path opacity="0.1" d="M364.398 269.792L288.786 304.973L289.008 305.479L364.621 270.299L364.398 269.792Z" fill="black"/>
<path opacity="0.1" d="M372.529 269.802L289.379 307.236L289.595 307.746L372.745 270.311L372.529 269.802Z" fill="black"/>
<path opacity="0.1" d="M390.327 266.692L290.635 311.042L290.849 311.552L390.541 267.203L390.327 266.692Z" fill="black"/>
<path opacity="0.3" d="M140.833 226.639L235.816 206.073L293.68 217.468L215.848 243.315L140.833 226.639Z" fill="white"/>
<path d="M404.95 227.934C404.95 227.934 409.861 229.974 406.979 233.126C404.097 236.278 293.68 269.196 293.68 269.196L404.95 227.934Z" fill="#5D00A9"/>
<path d="M167.526 59.1987C167.526 59.1987 147.018 57.9258 149.414 72.7449C149.414 72.7449 148.934 75.363 151.238 76.5525C151.238 76.5525 151.276 75.4408 153.343 75.8244C154.081 75.9549 154.831 75.9922 155.577 75.9355C156.583 75.8646 157.54 75.4588 158.303 74.7793C158.303 74.7793 164.072 72.3225 166.317 62.6061C166.317 62.6061 167.979 60.4883 167.936 59.9435L164.46 61.4666C164.46 61.4666 165.642 64.0402 164.714 66.1802C164.714 66.1802 164.601 61.5611 163.931 61.6667C163.796 61.6667 162.134 62.5616 162.134 62.5616C162.134 62.5616 164.169 67.0474 162.631 70.3047C162.631 70.3047 163.214 64.7795 161.497 62.884L159.058 64.3515C159.058 64.3515 161.438 68.9818 159.824 72.7616C159.824 72.7616 160.24 66.964 158.545 64.7072L156.333 66.486C156.333 66.486 158.572 71.0496 157.207 74.1846C157.207 74.1846 157.029 67.4365 155.858 66.9251C155.858 66.9251 153.92 68.6816 153.629 69.4042C153.629 69.4042 155.162 72.7394 154.206 74.4681C154.206 74.4681 153.629 69.9712 153.127 69.9489C153.127 69.9489 151.2 72.9283 151.001 74.9517C151.094 73.0654 151.665 71.2371 152.658 69.6488C151.547 69.8652 150.523 70.4121 149.711 71.2219C149.711 71.2219 150.008 69.1152 153.138 68.9317C153.138 68.9317 154.73 66.6694 155.156 66.536C155.156 66.536 152.042 66.2636 150.159 67.1252C150.159 67.1252 151.821 65.1408 155.723 66.0135L157.882 64.1792C157.882 64.1792 153.791 63.6233 152.053 64.2403C152.053 64.2403 154.055 62.4838 158.47 63.7623L160.85 62.3004C160.85 62.3004 157.358 61.5277 155.28 61.8057C155.28 61.8057 157.471 60.5883 161.546 61.9057L163.241 61.122C163.241 61.122 160.688 60.605 159.938 60.5216C159.188 60.4382 159.15 60.227 159.15 60.227C160.77 59.953 162.432 60.1453 163.953 60.7829C163.953 60.7829 167.596 59.4321 167.526 59.1987Z" fill="#5D00A9"/>
<path opacity="0.1" d="M456.035 120.109C456.035 120.109 435.528 118.836 437.924 133.656C437.924 133.656 437.443 136.274 439.748 137.463C439.748 137.463 439.786 136.352 441.853 136.735C442.59 136.863 443.34 136.9 444.087 136.846C445.084 136.771 446.03 136.365 446.785 135.69C446.785 135.69 452.56 133.233 454.799 123.517C454.799 123.517 456.462 121.399 456.418 120.854L452.954 122.377C452.954 122.377 454.136 124.951 453.207 127.091C453.207 127.091 453.094 122.472 452.43 122.577C452.295 122.577 450.628 123.472 450.628 123.472C450.628 123.472 452.662 127.958 451.13 131.215C451.13 131.215 451.712 125.69 449.991 123.795L447.552 125.262C447.552 125.262 449.931 129.892 448.318 133.672C448.318 133.672 448.733 127.875 447.039 125.618L444.832 127.397C444.832 127.397 447.066 131.96 445.7 135.095C445.7 135.095 445.522 128.347 444.351 127.836C444.351 127.836 442.419 129.592 442.122 130.315C442.122 130.315 443.655 133.65 442.705 135.379C442.705 135.379 442.122 130.882 441.626 130.86C441.626 130.86 439.699 133.839 439.5 135.862C439.593 133.975 440.166 132.147 441.162 130.559C440.05 130.776 439.024 131.323 438.21 132.133C438.21 132.133 438.512 130.026 441.637 129.842C441.637 129.842 443.229 127.58 443.655 127.441C443.655 127.441 440.547 127.174 438.658 128.036C438.658 128.036 440.32 126.052 444.222 126.924L446.38 125.09C446.38 125.09 442.284 124.534 440.552 125.151C440.552 125.151 442.549 123.394 446.969 124.673L449.343 123.211C449.343 123.211 445.852 122.438 443.774 122.716C443.774 122.716 445.965 121.499 450.039 122.816L451.739 122.033C451.739 122.033 449.181 121.516 448.431 121.432C447.681 121.349 447.643 121.138 447.643 121.138C449.263 120.86 450.926 121.053 452.446 121.694C452.446 121.694 456.1 120.343 456.035 120.109Z" fill="#5D00A9"/>
<path opacity="0.1" d="M202.065 150.748C202.065 150.748 193.128 131.666 181.751 141.071C181.751 141.071 179.296 141.916 179.415 144.567C179.415 144.567 180.359 144.061 181.034 146.107C181.286 146.83 181.619 147.52 182.027 148.163C182.579 149.035 183.391 149.699 184.342 150.053C184.342 150.053 189.237 154.044 198.568 151.321C198.568 151.321 201.174 151.782 201.601 151.46L198.622 149.086C198.622 149.086 197.003 151.404 194.747 151.61C194.747 151.61 198.611 149.258 198.195 148.714C198.109 148.603 196.576 147.53 196.576 147.53C196.576 147.53 193.765 151.549 190.257 151.754C190.257 151.754 195.222 149.586 195.988 147.113L193.559 145.634C193.559 145.634 190.791 150.037 186.803 150.426C186.803 150.426 191.919 147.974 193.004 145.351L190.424 144.239C190.424 144.239 187.645 148.475 184.32 148.78C184.32 148.78 189.954 145.329 189.814 144.022C189.814 144.022 187.38 143.144 186.625 143.227C186.625 143.227 184.563 146.223 182.62 146.223C182.62 146.223 186.144 143.505 185.928 143.066C185.928 143.066 182.464 142.788 180.64 143.622C182.283 142.781 184.112 142.397 185.945 142.51C185.218 141.618 184.254 140.963 183.171 140.626C183.171 140.626 185.103 139.87 186.781 142.588C186.781 142.588 189.479 142.916 189.798 143.233C189.798 143.233 188.508 140.309 186.862 139.036C186.862 139.036 189.355 139.553 190.494 143.483L193.112 144.55C193.112 144.55 191.606 140.593 190.219 139.342C190.219 139.342 192.68 140.281 193.754 144.901L196.15 146.324C196.15 146.324 195.108 142.805 193.856 141.076C193.856 141.076 195.956 142.455 196.824 146.757L198.319 147.902C198.319 147.902 197.51 145.351 197.24 144.639C196.97 143.928 197.105 143.783 197.105 143.783C198.132 145.103 198.782 146.691 198.983 148.369C198.983 148.369 201.87 150.915 202.065 150.748Z" fill="#5D00A9"/>
<path opacity="0.1" d="M409.181 93.1504C409.181 93.1504 400.249 74.0678 388.867 83.4729C388.867 83.4729 386.417 84.3178 386.531 86.9693C386.531 86.9693 387.48 86.469 388.15 88.509C388.401 89.235 388.736 89.9274 389.148 90.5712C389.698 91.4416 390.509 92.1032 391.458 92.4556C391.458 92.4556 396.358 96.4466 405.684 93.7285C405.684 93.7285 408.29 94.1843 408.722 93.8619L405.759 91.4828C405.759 91.4828 404.14 93.8063 401.89 94.012C401.89 94.012 405.748 91.6551 405.333 91.1104C405.246 90.9992 403.714 89.9264 403.714 89.9264C403.714 89.9264 400.907 93.9452 397.394 94.1509C397.394 94.1509 402.365 91.9831 403.131 89.5151L400.665 88.0476C400.665 88.0476 397.901 92.4444 393.908 92.8391C393.908 92.8391 399.024 90.3822 400.114 87.7586L397.529 86.6469C397.529 86.6469 394.75 90.888 391.431 91.1882C391.431 91.1882 397.06 87.7363 396.919 86.4356C396.919 86.4356 394.491 85.5518 393.735 85.6408C393.735 85.6408 391.674 88.6313 389.725 88.6313C389.725 88.6313 393.255 85.9131 393.039 85.474C393.039 85.474 389.574 85.1961 387.745 86.0299C389.388 85.1881 391.218 84.8048 393.05 84.9181C392.326 84.0248 391.363 83.3697 390.281 83.0338C390.281 83.0338 392.213 82.2778 393.892 84.996C393.892 84.996 396.59 85.3295 396.908 85.6463C396.908 85.6463 395.619 82.717 393.967 81.444C393.967 81.444 396.461 81.9666 397.599 85.9187L400.222 86.9859C400.222 86.9859 398.716 83.0227 397.329 81.772C397.329 81.772 399.79 82.7114 400.859 87.3306L403.26 88.7535C403.26 88.7535 402.213 85.2405 400.961 83.5063C400.961 83.5063 403.066 84.8848 403.93 89.1871L405.425 90.3322C405.425 90.3322 404.62 87.7808 404.345 87.0693C404.07 86.3578 404.21 86.2188 404.21 86.2188C405.234 87.5398 405.882 89.1272 406.083 90.8047C406.083 90.8047 409.013 93.3282 409.181 93.1504Z" fill="#5D00A9"/>
<path opacity="0.1" d="M437.724 187.54C437.724 187.54 428.792 168.452 417.395 177.857C417.395 177.857 414.944 178.702 415.058 181.354C415.058 181.354 416.008 180.853 416.677 182.893C416.927 183.619 417.26 184.312 417.67 184.956C418.22 185.826 419.031 186.488 419.98 186.84C419.98 186.84 424.88 190.837 434.211 188.113C434.211 188.113 436.812 188.574 437.244 188.246L434.265 185.873C434.265 185.873 432.646 188.196 430.39 188.402C430.39 188.402 434.249 186.045 433.833 185.5C433.747 185.389 432.214 184.316 432.214 184.316C432.214 184.316 429.408 188.335 425.894 188.546C425.894 188.546 430.865 186.373 431.631 183.905L429.197 182.426C429.197 182.426 426.434 186.829 422.44 187.218C422.44 187.218 427.557 184.761 428.647 182.137L426.062 181.026C426.062 181.026 423.282 185.261 419.963 185.567C419.963 185.567 425.598 182.115 425.457 180.809C425.457 180.809 423.023 179.925 422.268 180.014C422.268 180.014 420.206 183.005 418.258 183.005C418.258 183.005 421.788 180.286 421.572 179.847C421.572 179.847 418.107 179.569 416.277 180.403C417.923 179.562 419.754 179.179 421.588 179.291C420.863 178.397 419.898 177.741 418.814 177.407C418.814 177.407 420.746 176.646 422.424 179.369C422.424 179.369 425.123 179.697 425.441 180.014C425.441 180.014 424.151 177.09 422.505 175.812C422.505 175.812 424.999 176.334 426.137 180.286L428.755 181.354C428.755 181.354 427.249 177.39 425.862 176.145C425.862 176.145 428.323 177.079 429.391 181.704L431.793 183.121C431.793 183.121 430.746 179.608 429.494 177.874C429.494 177.874 431.599 179.253 432.468 183.56L433.963 184.672C433.963 184.672 433.153 182.121 432.883 181.409C432.613 180.698 432.748 180.559 432.748 180.559C433.774 181.878 434.423 183.466 434.621 185.145C434.621 185.145 437.557 187.707 437.724 187.54Z" fill="#5D00A9"/>
<path opacity="0.1" d="M108.987 435.88C115.839 435.88 121.394 435.241 121.394 434.452C121.394 433.663 115.839 433.023 108.987 433.023C102.135 433.023 96.5801 433.663 96.5801 434.452C96.5801 435.241 102.135 435.88 108.987 435.88Z" fill="#5D00A9"/>
<path opacity="0.1" d="M27.6528 411.6C34.5051 411.6 40.0599 410.961 40.0599 410.172C40.0599 409.383 34.5051 408.743 27.6528 408.743C20.8006 408.743 15.2457 409.383 15.2457 410.172C15.2457 410.961 20.8006 411.6 27.6528 411.6Z" fill="#5D00A9"/>
<path opacity="0.1" d="M170.985 452.005C177.837 452.005 183.392 451.366 183.392 450.577C183.392 449.788 177.837 449.148 170.985 449.148C164.133 449.148 158.578 449.788 158.578 450.577C158.578 451.366 164.133 452.005 170.985 452.005Z" fill="#5D00A9"/>
<path opacity="0.1" d="M488.691 416.881C495.543 416.881 501.098 416.241 501.098 415.452C501.098 414.664 495.543 414.024 488.691 414.024C481.839 414.024 476.284 414.664 476.284 415.452C476.284 416.241 481.839 416.881 488.691 416.881Z" fill="#5D00A9"/>
<path opacity="0.1" d="M385.446 409.949C392.298 409.949 397.853 409.31 397.853 408.521C397.853 407.732 392.298 407.092 385.446 407.092C378.594 407.092 373.039 407.732 373.039 408.521C373.039 409.31 378.594 409.949 385.446 409.949Z" fill="#5D00A9"/>
<path opacity="0.1" d="M318.656 443.757C326.76 443.757 333.33 442.594 333.33 441.161C333.33 439.727 326.76 438.565 318.656 438.565C310.552 438.565 303.982 439.727 303.982 441.161C303.982 442.594 310.552 443.757 318.656 443.757Z" fill="#5D00A9"/>
<path d="M325.202 415.069C325.202 415.069 304.77 425.941 315.326 438.748C315.326 438.748 316.319 441.528 319.19 441.333C319.19 441.333 318.618 440.255 320.809 439.393C321.589 439.083 322.33 438.678 323.016 438.187C323.944 437.526 324.638 436.572 324.992 435.469C324.992 435.469 329.169 429.71 325.931 419.054C325.931 419.054 326.351 416.042 325.985 415.552L323.502 419.06C323.502 419.06 326.065 420.833 326.362 423.44C326.362 423.44 323.664 419.065 323.124 419.549C323.006 419.649 321.894 421.467 321.894 421.467C321.894 421.467 326.341 424.574 326.67 428.61C326.67 428.61 324.166 422.956 321.462 422.15L319.913 424.996C319.913 424.996 324.77 428.043 325.31 432.623C325.31 432.623 322.487 426.814 319.606 425.641L318.467 428.648C318.467 428.648 323.151 431.717 323.583 435.53C323.583 435.53 319.665 429.154 318.256 429.354C318.256 429.354 317.371 432.178 317.49 433.051C317.49 433.051 320.798 435.33 320.858 437.57C320.858 437.57 317.803 433.596 317.334 433.857C317.334 433.857 317.139 437.853 318.078 439.932C318.078 439.932 316.459 436.964 316.724 433.857C315.777 434.719 315.096 435.847 314.765 437.103C314.765 437.103 313.885 434.907 316.783 432.884C316.783 432.884 317.058 429.777 317.393 429.393C317.393 429.393 314.257 430.972 312.924 432.906C312.924 432.906 313.416 430.021 317.668 428.587L318.748 425.541C318.748 425.541 314.495 427.398 313.183 429.032C313.183 429.032 314.128 426.169 319.082 424.796L320.55 422.017C320.55 422.017 316.772 423.329 314.927 424.796C314.927 424.796 316.357 422.334 321.003 421.2L322.196 419.449C322.196 419.449 319.454 420.455 318.688 420.816C317.922 421.178 317.771 421 317.771 421C319.171 419.779 320.873 418.983 322.687 418.699C322.687 418.699 325.391 415.258 325.202 415.069Z" fill="#5D00A9"/>
<path d="M385.845 209.719C382.316 199.841 362.888 198.913 354.458 201.431C348.467 203.226 335.839 205.25 329.093 206.267L328.656 205.839C329.53 205.572 329.552 204.916 329.444 203.943C329.381 202.661 329.399 201.376 329.498 200.097C333.632 201.42 337.312 198.29 337.312 198.29C342.169 196.067 340.863 186.551 341.792 183.949C342.488 182.004 343.238 170.542 343.573 164.828H343.643L343.681 162.91C343.729 162.082 343.751 161.598 343.751 161.598C343.751 161.598 344.226 147.624 345.154 144.795C346.017 142.193 346.719 129.086 346.827 127.007C346.827 126.829 346.827 126.735 346.827 126.735L346.757 125.523C346.805 124.639 346.827 123.655 346.821 122.622C346.821 117.869 346.341 111.882 346.282 110.915C346.282 110.776 346.282 110.61 346.282 110.409C346.32 108.381 346.071 98.2195 337.679 94.3786C334.587 92.9556 330.869 91.2602 327.269 89.6093C326.341 81.3549 324.22 73.1449 324.403 64.8292C324.403 63.5786 324.511 62.3279 324.63 61.0828C324.63 61.4441 324.592 61.8109 324.587 62.1945C324.587 63.0005 324.587 63.812 324.587 64.618C324.905 54.218 328.721 43.7623 328.365 33.5846C328.332 34.5796 328.262 35.5801 328.17 36.5806C328.357 33.1381 328.007 29.6871 327.134 26.3584C326.81 25.1856 326.373 23.9738 325.44 23.1901C324.557 22.5588 323.545 22.1461 322.482 21.9839C319.928 21.3106 317.334 20.8129 314.716 20.4942C314.318 19.24 313.728 18.0596 312.968 16.9978C307.495 9.26031 299.39 1.98971 289.805 0.322144C284.996 -0.51164 279.465 0.18318 276.194 3.72398C275.853 4.03503 275.532 4.3693 275.234 4.72452C273.474 6.8868 272.719 9.72723 270.916 11.884C270.798 12.0285 270.663 12.1619 270.533 12.3008C267.004 15.5526 261.504 16.2307 257.581 19.149C256.89 19.6729 256.242 20.2548 255.644 20.8888C254.063 22.5024 252.645 24.2773 251.412 26.1861C249.648 28.7431 247.834 31.4056 247.273 34.4573C246.145 40.5717 250.187 46.3693 250.938 52.5226C252.611 66.2912 237.818 78.5089 240.619 92.094C241.366 95.4314 243.017 98.4824 245.379 100.893C239.61 106.274 234.699 111.493 234.699 111.493V111.805H233.787L233.878 112.916H233.787L234.289 118.947L233.787 127.73C233.787 127.73 233.787 127.824 233.787 128.002V128.047V128.286C233.787 128.286 233.787 128.38 233.787 128.558H233.819C233.986 131.777 234.65 143.349 235.438 145.79C236.366 148.619 236.836 162.593 236.836 162.593C236.836 162.593 237.861 182.343 238.8 184.955C239.739 187.568 238.406 197.056 243.28 199.296C244.705 200.423 246.393 201.143 248.174 201.386C247.926 203.465 248.083 204.972 248.887 205.444C249.231 205.653 249.621 205.767 250.02 205.778C249.689 206.283 249.395 206.812 249.14 207.362C247.206 207.154 245.306 206.692 243.485 205.989C238.25 203.765 220.878 198.763 215.832 202.281C210.786 205.8 198.643 208.991 204.25 223.154C209.858 237.317 212.47 237.673 212.47 237.673C214.196 238.963 215.71 240.53 216.954 242.314C218.638 244.921 234.326 250.885 238.25 250.885C239.917 250.859 241.585 250.944 243.242 251.141C243.242 251.141 238.984 254.988 239.55 257.222C240.117 259.457 238.255 277.344 238.255 277.344C238.255 277.344 242.573 281.824 244.418 275.949L244.483 276.038C244.828 276.521 246.696 278.706 250.209 275.949C251.647 274.825 253.174 273.829 254.775 272.97L271.785 270.49C273.559 270.376 275.337 270.363 277.112 270.452C279.81 270.679 282.46 269.034 284.128 267.761C287.652 269.14 291.613 270.646 293.496 271.196C297.317 272.308 314.878 277.161 318.985 275.643C319.839 275.294 320.598 274.737 321.198 274.02L325.116 274.148L323.281 274.526C323.281 274.526 326.853 274.587 331.711 274.654L331.505 274.776L337.598 274.721C346.514 274.804 356.53 274.832 357.847 274.526C359.909 274.053 370.621 274.387 373.778 274.526H374.658C374.658 274.526 386.428 272.108 381.571 259.807C377.836 250.357 366.358 247.611 361.263 246.855C362.699 246.561 363.934 246.333 364.755 246.2C368.311 245.644 375.219 242.309 375.78 241.169C376.342 240.03 382.132 236.722 383.627 234.838C385.122 232.953 389.391 219.596 385.845 209.719ZM288.353 237.361L287.776 237.556L287.387 237.689L286.642 238.445C286.049 238.034 285.412 237.6 284.748 237.156C285.919 237.228 287.123 237.3 288.353 237.361Z" fill="url(#paint0_linear_67:24)"/>
<path d="M322.763 178.752C322.763 178.752 331.02 200.986 335.715 198.763C340.41 196.54 339.136 187.09 340.032 184.5C340.928 181.909 341.921 162.266 341.921 162.266C341.921 162.266 342.374 148.369 343.27 145.556C344.101 142.972 344.776 129.937 344.889 127.886C344.889 127.708 344.889 127.613 344.889 127.613L343.999 111.494L338.958 110.198L327.269 114.645L325.65 124.167L325.019 127.886L324.749 129.47L322.763 178.752Z" fill="#FFCBCD"/>
<path opacity="0.1" d="M325.483 175.028C325.483 175.028 333.362 181.671 335.736 182.254C338.111 182.838 339.568 188.018 339.568 188.018" fill="black"/>
<path d="M258.191 179.725C258.191 179.725 249.934 201.959 245.239 199.736C240.543 197.512 241.817 188.063 240.921 185.473C240.025 182.882 239.032 163.238 239.032 163.238C239.032 163.238 238.579 149.342 237.683 146.529C236.852 143.945 236.177 130.91 236.064 128.859C236.064 128.681 236.064 128.586 236.064 128.586L236.96 112.466L242.001 111.171L253.69 115.618L255.309 125.14L255.94 128.859L256.21 130.443L258.191 179.725Z" fill="#FFCBCD"/>
<path d="M311.958 60.7384H293.529V90.3266H311.958V60.7384Z" fill="#3E373A"/>
<path opacity="0.1" d="M311.958 60.7384H293.529V90.3266H311.958V60.7384Z" fill="black"/>
<path d="M254.953 201.87C254.953 201.87 248.655 209.002 250.991 210.297C253.328 211.592 268.445 235.866 268.445 235.866C268.445 235.866 318.095 242.164 327.458 232.715C336.821 223.265 336.632 206.384 336.632 206.384C336.632 206.384 329.109 208.051 328.289 207.145C327.469 206.239 322.962 201.87 322.962 201.87C322.962 201.87 259.27 197.89 254.953 201.87Z" fill="#4B4B5B"/>
<path opacity="0.02" d="M254.953 201.87C254.953 201.87 248.655 209.002 250.991 210.297C253.328 211.592 268.445 235.866 268.445 235.866C268.445 235.866 318.095 242.164 327.458 232.715C336.821 223.265 336.632 206.384 336.632 206.384C336.632 206.384 329.109 208.051 328.289 207.145C327.469 206.239 322.962 201.87 322.962 201.87C322.962 201.87 259.27 197.89 254.953 201.87Z" fill="black"/>
<path d="M344.333 111.727L328.143 125.068L323.248 125.434L321.451 125.568L291.267 127.847L259.966 125.49L255.309 125.14L249.372 124.695L236.96 112.466C236.96 112.466 245.746 102.772 253.442 96.2298C256.475 93.645 259.34 91.555 261.429 90.7323L261.785 90.6045C263.099 90.0768 264.271 89.2347 265.206 88.1476C271.283 81.6941 276.901 65.7688 276.901 65.7688C276.901 65.7688 303.707 51.5056 300.469 70.2157C297.231 88.9258 312.52 84.3011 312.52 84.3011L317.56 86.669L319.552 87.6084L324.63 90.0042L336.087 95.4182C345.078 99.6816 344.333 111.727 344.333 111.727Z" fill="#FFCBCD"/>
<path opacity="0.1" d="M290.01 81.0049C303.324 81.0049 314.117 69.8881 314.117 56.1748C314.117 42.4615 303.324 31.3447 290.01 31.3447C276.696 31.3447 265.903 42.4615 265.903 56.1748C265.903 69.8881 276.696 81.0049 290.01 81.0049Z" fill="black"/>
<path opacity="0.1" d="M344.371 129.414H236.064C236.064 129.237 236.064 129.142 236.064 129.142L236.96 113.022C236.96 113.022 245.746 103.328 253.442 96.7857L321.44 94.0064L324.603 90.5712L336.06 95.9853C345.057 100.243 344.333 112.289 344.333 112.289C344.333 112.289 345.564 126.246 344.371 129.414Z" fill="black"/>
<path d="M344.371 128.859H236.064C236.064 128.681 236.064 128.586 236.064 128.586L236.96 112.466C236.96 112.466 245.746 102.772 253.442 96.2299L321.44 93.4506L324.603 90.0154L336.06 95.4294C345.057 99.6873 344.333 111.733 344.333 111.733C344.333 111.733 345.564 125.69 344.371 128.859Z" fill="#B09DC0"/>
<path opacity="0.1" d="M272.649 83.6564C272.649 83.6564 289.735 106.08 312.493 83.195C335.251 60.3104 315.013 134.239 315.013 134.239L265.903 140.243L272.649 83.6564Z" fill="black"/>
<path d="M272.649 84.7681C272.649 84.7681 289.735 107.191 312.493 84.3067C335.251 61.4221 315.013 135.351 315.013 135.351L265.903 141.354L272.649 84.7681Z" fill="#B09DC0"/>
<path opacity="0.1" d="M319.525 88.7035L321.333 117.102L323.27 126.552L324.749 133.778C324.749 133.778 328.526 189.363 327.447 192.143C326.368 194.922 327.987 197.145 328.213 198.624C328.44 200.103 327.987 203.816 328.165 205.483C328.343 207.151 328.165 207.89 324.031 207.295C319.897 206.701 314.133 205.667 314.133 205.667C314.133 205.667 299.562 206.778 294.527 204.927C289.492 203.076 279.956 203.071 279.956 203.071C279.956 203.071 265.563 203.443 260.889 202.887C256.216 202.332 253.69 208.818 250.635 206.962C247.581 205.105 254.23 187.14 256.388 181.948C258.547 176.757 253.512 163.605 253.512 163.605L259.988 126.602L261.429 118.214V91.8441L261.785 91.7162C263.099 91.1886 264.271 90.3464 265.206 89.2593L266.826 115.796L317.555 117.652V87.7863" fill="black"/>
<path d="M319.525 87.5918L321.333 115.99L323.27 125.44L324.749 132.666C324.749 132.666 328.526 188.252 327.447 191.031C326.368 193.81 327.987 196.034 328.213 197.512C328.44 198.991 327.987 202.704 328.165 204.372C328.343 206.039 328.165 206.778 324.031 206.184C319.897 205.589 314.133 204.555 314.133 204.555C314.133 204.555 299.562 205.667 294.527 203.816C289.492 201.965 279.956 201.959 279.956 201.959C279.956 201.959 265.563 202.332 260.889 201.776C256.216 201.22 253.69 207.707 250.635 205.85C247.581 203.994 254.23 186.028 256.388 180.837C258.547 175.645 253.512 162.493 253.512 162.493L259.988 125.49L261.429 117.102V90.7323L261.785 90.6045C263.099 90.0768 264.271 89.2347 265.206 88.1476L266.826 114.684L317.555 116.541V86.6746" fill="#B09DC0"/>
<path opacity="0.1" d="M325.359 28.3264C325.051 27.1647 324.625 25.9585 323.74 25.1803C322.895 24.5552 321.918 24.1439 320.89 23.9796C318.429 23.3129 315.926 22.819 313.399 22.5011C313.039 21.2668 312.492 20.0983 311.78 19.0381C306.492 11.345 298.666 4.09111 289.46 2.45134C284.64 1.58976 279.055 2.3624 275.968 6.27563C274.273 8.42679 273.545 11.2783 271.834 13.3906C268.536 17.4928 262.584 17.9986 258.428 21.1726C256.21 22.8401 254.602 25.2581 253.032 27.6038C251.332 30.1441 249.583 32.79 249.043 35.8249C247.964 41.8893 251.855 47.6702 252.573 53.7902C254.192 67.4809 239.944 79.6264 242.637 93.1337C244.208 101.01 251.272 106.558 258.579 109.37C261.154 110.365 264.095 111.355 265.298 113.9C265.838 115.012 265.93 116.296 266.437 117.419C268.142 121.166 273.75 121.31 276.761 118.581C279.772 115.852 280.722 111.438 281.078 107.319C282.525 89.3316 275.531 71.5609 276.345 53.529C276.588 48.076 278.078 41.8893 282.822 39.4213C289.206 36.0862 296.885 41.6448 303.912 40.5831C307.237 48.9161 307.943 58.113 305.93 66.8806C304.813 71.6777 302.881 76.3302 302.741 81.2773C302.53 88.8091 306.475 95.6906 309.886 102.35C310.618 103.595 311.107 104.975 311.327 106.413C311.381 107.872 311.117 109.325 310.555 110.665C308.629 116.007 305.304 120.965 304.927 126.652C304.816 127.316 304.961 127.998 305.331 128.553C305.712 128.923 306.202 129.151 306.724 129.198C312.552 130.226 317.593 124.906 320.437 119.565C323.608 113.665 325.455 107.108 325.844 100.377C326.433 89.0593 322.493 77.9255 322.736 66.5971C323.016 53.7179 328.667 40.7498 325.359 28.3264Z" fill="black"/>
<path d="M325.898 27.7706C325.591 26.6089 325.164 25.4026 324.279 24.6245C323.434 23.9994 322.458 23.5881 321.43 23.4238C318.968 22.7571 316.465 22.2631 313.939 21.9452C313.578 20.7109 313.032 19.5425 312.32 18.4822C307.031 10.7892 299.206 3.53527 289.999 1.89549C285.18 1.03392 279.594 1.80655 276.507 5.71978C274.813 7.87094 274.084 10.7225 272.373 12.8347C269.076 16.937 263.123 17.4428 258.968 20.6167C256.75 22.2843 255.142 24.7023 253.571 27.048C251.871 29.5882 250.123 32.2341 249.583 35.2691C248.504 41.3335 252.395 47.1144 253.112 53.2344C254.731 66.9251 240.484 79.0706 243.177 92.5779C244.747 100.454 251.812 106.002 259.119 108.814C261.693 109.809 264.634 110.799 265.838 113.345C266.378 114.456 266.469 115.74 266.977 116.863C268.682 120.61 274.289 120.754 277.301 118.025C280.312 115.296 281.262 110.882 281.618 106.763C283.064 88.7758 276.07 71.0051 276.885 52.9731C277.128 47.5202 278.617 41.3335 283.361 38.8655C289.745 35.5303 297.425 41.0889 304.452 40.0272C307.777 48.3603 308.483 57.5571 306.47 66.3248C305.353 71.1218 303.421 75.7743 303.28 80.7215C303.07 88.2533 307.015 95.1348 310.426 101.794C311.158 103.039 311.647 104.419 311.867 105.857C311.92 107.316 311.657 108.769 311.095 110.11C309.168 115.451 305.844 120.41 305.466 126.096C305.355 126.76 305.501 127.442 305.871 127.997C306.251 128.368 306.742 128.595 307.263 128.642C313.092 129.67 318.132 124.351 320.976 119.009C324.147 113.109 325.995 106.552 326.384 99.8207C326.972 88.5034 323.033 77.3696 323.275 66.0413C323.556 53.1621 329.206 40.194 325.898 27.7706Z" fill="#3E373A"/>
<path d="M313.977 273.887L335.386 274.593L332.315 258.24L315.914 259.846L313.977 273.887Z" fill="#C3C7D9"/>
<path d="M380.313 235.127C378.873 236.978 373.298 240.313 372.758 241.425C372.218 242.537 365.564 245.872 362.143 246.428C358.721 246.984 347.933 249.396 345.952 250.691C344.533 251.625 333.141 254.582 325.655 256.222C323.628 256.716 321.576 257.096 319.508 257.361C316.27 257.545 280.835 245.133 280.835 245.133L287.668 237.906L288.045 237.773C289.978 237.1 298.904 233.993 303.858 232.515C309.438 230.847 315.914 223.993 315.914 223.993C315.914 223.993 325.445 220.658 326.708 220.286C327.971 219.913 323.47 207.318 323.47 207.318C323.47 207.318 344.155 204.361 352.25 201.854C360.346 199.347 379.056 200.275 382.472 210.097C385.888 219.919 381.776 233.276 380.313 235.127Z" fill="#4B4B5B"/>
<path d="M286.049 266.439C286.049 266.439 281.915 270.885 277.776 270.519C273.636 270.152 259.162 271.63 259.162 271.63C256.539 272.708 254.083 274.174 251.871 275.983C248.487 278.729 246.69 276.538 246.356 276.072L246.296 275.983C244.494 281.825 240.36 277.372 240.36 277.372C240.36 277.372 242.157 259.585 241.607 257.361C241.056 255.138 245.163 251.319 245.163 251.319L250.02 250.046L262.325 246.8L279.956 253.098L286.049 266.439Z" fill="#E7C7CA"/>
<path opacity="0.1" d="M249.999 250.046L246.356 276.072L246.296 275.983C244.494 281.825 240.36 277.372 240.36 277.372C240.36 277.372 242.157 259.585 241.607 257.361C241.056 255.138 245.163 251.319 245.163 251.319L249.999 250.046Z" fill="black"/>
<path opacity="0.1" d="M275.46 176.017C275.46 176.017 284.991 179.353 293.27 176.017H275.46Z" fill="black"/>
<path opacity="0.1" d="M307.997 182.321C307.997 182.321 311.953 184.355 315.013 182.321H307.997Z" fill="black"/>
<path opacity="0.1" d="M307.997 187.146C307.997 187.146 314.651 188.063 315.914 186.212L307.997 187.146Z" fill="black"/>
<path opacity="0.1" d="M305.839 197.512C305.839 197.512 318.337 195.845 321.44 193.621L305.839 197.512Z" fill="black"/>
<path opacity="0.1" d="M267.7 193.621C267.7 193.621 274.716 197.696 279.934 197.512L267.7 193.621Z" fill="black"/>
<path opacity="0.1" d="M325.65 256.222C323.623 256.716 321.571 257.096 319.503 257.361C316.265 257.545 280.83 245.133 280.83 245.133L287.662 237.907L288.04 237.773C289.119 238.557 290.005 239.229 290.636 239.741C293.61 242.153 296.481 239.002 297.56 239.002C298.639 239.002 307.992 246.967 307.992 246.967C307.992 246.967 316.627 249.007 318.068 250.858C319.508 252.709 324.544 252.342 325.439 253.637C325.709 254.037 325.742 255.021 325.65 256.222Z" fill="black"/>
<path d="M259.162 208.074C259.162 208.074 250.43 208.591 245.395 206.406C240.36 204.222 223.63 199.18 218.773 202.721C213.916 206.262 202.221 209.391 207.618 223.476C213.015 237.562 215.535 237.929 215.535 237.929C217.205 239.218 218.662 240.776 219.852 242.542C221.471 245.138 236.582 251.064 240.36 251.064C244.138 251.064 250.792 251.064 260.144 257.734C269.497 264.404 277.954 265.149 277.954 265.149C277.954 265.149 289.826 270.152 293.523 271.263C297.22 272.375 314.112 277.189 318.073 275.71C322.034 274.232 324.549 264.96 324.549 264.96C324.549 264.96 326.346 256.622 325.445 255.327C324.544 254.032 319.508 254.399 318.073 252.548C316.637 250.697 307.997 248.657 307.997 248.657C307.997 248.657 298.666 240.686 297.587 240.686C296.508 240.686 293.636 243.832 290.663 241.425C284.739 236.906 278.516 232.82 272.039 229.196C265.206 225.489 259.162 208.074 259.162 208.074Z" fill="#4B4B5B"/>
<path opacity="0.1" d="M241.607 213.449C243.161 213.122 244.768 213.169 246.303 213.586C247.837 214.004 249.257 214.78 250.452 215.856C254.769 219.563 269.297 227.006 269.297 227.006" fill="black"/>
<path opacity="0.1" d="M349.552 213.215C349.552 213.215 330.302 216.217 326.708 220.291L349.552 213.215Z" fill="black"/>
<path d="M371.679 274.593H370.831C367.788 274.482 357.474 274.148 355.488 274.593C353.152 275.149 322.207 274.593 322.207 274.593L328.257 273.298C328.257 273.298 326.011 265.193 327.436 264.521C327.436 264.521 319.341 259.029 325.445 255.321C331.549 251.614 338.127 253.176 338.127 253.176L353.449 247.828L356.39 246.8C356.39 246.8 373.659 247.728 378.333 259.957C383.006 272.186 371.679 274.593 371.679 274.593Z" fill="#E7C7CA"/>
<path opacity="0.1" d="M371.679 274.593H370.831C375.856 270.324 387.221 257.328 353.449 247.856L356.39 246.828C356.39 246.828 373.659 247.756 378.333 259.985C383.007 272.214 371.679 274.593 371.679 274.593Z" fill="black"/>
<path d="M339.93 260.185C340.451 260.185 340.874 259.75 340.874 259.212C340.874 258.675 340.451 258.24 339.93 258.24C339.408 258.24 338.985 258.675 338.985 259.212C338.985 259.75 339.408 260.185 339.93 260.185Z" fill="#4B4B5B"/>
<path d="M334.441 261.792C334.963 261.792 335.386 261.356 335.386 260.819C335.386 260.282 334.963 259.846 334.441 259.846C333.92 259.846 333.497 260.282 333.497 260.819C333.497 261.356 333.92 261.792 334.441 261.792Z" fill="#4B4B5B"/>
<g opacity="0.1">
<path opacity="0.1" d="M307.7 55.2576C307.91 49.1436 306.854 43.0537 304.603 37.3923C297.587 38.4707 289.902 32.8955 283.512 36.2306C278.785 38.6986 277.301 44.8853 277.036 50.3382C276.971 51.7779 276.961 53.2176 276.988 54.6572C276.988 54.1459 276.988 53.6289 277.036 53.1175C277.284 47.6646 278.768 41.4779 283.512 39.0099C289.902 35.6747 297.576 41.2333 304.603 40.1716C306.509 44.967 307.559 50.0778 307.7 55.2576Z" fill="black"/>
<path opacity="0.1" d="M253.334 54.2404C253.426 53.0292 253.403 51.8116 253.263 50.6051C252.691 45.7136 250.096 41.0388 249.626 36.2696C249.022 42.0227 252.578 47.5479 253.263 53.3844C253.334 53.6846 253.334 53.9514 253.334 54.2404Z" fill="black"/>
<path opacity="0.1" d="M281.769 104.123C281.435 108.247 280.49 112.655 277.452 115.39C274.413 118.125 268.817 117.975 267.128 114.228C266.588 113.117 266.507 111.822 265.984 110.71C264.786 108.164 261.839 107.175 259.265 106.18C251.952 103.361 244.899 97.8418 243.328 89.943C243.188 89.2275 243.092 88.5034 243.042 87.7752C242.909 89.4299 243.006 91.0956 243.328 92.7223C244.899 100.599 251.963 106.141 259.265 108.959C261.839 109.954 264.786 110.943 265.984 113.489C266.523 114.601 266.615 115.885 267.128 117.008C268.828 120.754 274.435 120.899 277.452 118.169C280.469 115.44 281.408 111.027 281.769 106.902C281.934 104.731 281.989 102.553 281.936 100.376C281.936 101.638 281.866 102.883 281.769 104.123Z" fill="black"/>
<path opacity="0.1" d="M323.453 63.4065C323.453 64.2125 323.453 65.0129 323.453 65.8133C323.756 55.4744 327.436 45.0799 327.075 34.9577C326.794 44.3184 323.659 53.8902 323.453 63.4065Z" fill="black"/>
<path opacity="0.1" d="M311.872 105.229C312.005 104.57 312.047 103.894 311.996 103.223C311.779 101.784 311.289 100.403 310.555 99.1592C307.436 93.0448 303.88 86.7858 303.459 79.9988C303.459 80.2879 303.421 80.5547 303.415 80.866C303.2 88.3923 307.145 95.2793 310.555 101.938C311.135 102.97 311.578 104.077 311.872 105.229Z" fill="black"/>
<path opacity="0.1" d="M326.557 97.1857C326.154 103.92 324.293 110.476 321.111 116.374C318.262 121.716 313.227 127.035 307.393 126.007C306.87 125.961 306.379 125.731 306.001 125.357C305.891 125.229 305.805 125.082 305.747 124.923C305.682 125.357 305.628 125.796 305.596 126.24C305.484 126.902 305.63 127.583 306.001 128.136C306.379 128.51 306.87 128.74 307.393 128.786C313.227 129.815 318.262 124.495 321.111 119.153C324.293 113.256 326.154 106.699 326.557 99.965C326.621 98.6643 326.627 97.3692 326.589 96.074C326.578 96.4465 326.578 96.8133 326.557 97.1857Z" fill="black"/>
</g>
<path opacity="0.1" d="M327.436 264.521C327.436 264.521 341.095 270.424 350.103 257.361" stroke="black" stroke-miterlimit="10"/>
<path opacity="0.1" d="M330.124 274.838C330.124 274.838 341.279 267.367 355.489 274.593" stroke="black" stroke-miterlimit="10"/>
<path opacity="0.1" d="M255.455 273.142C255.455 273.142 260.139 262.258 272.649 270.557" stroke="black" stroke-miterlimit="10"/>
<path opacity="0.1" d="M240.268 112.188L249.82 103.295C249.82 103.295 286.858 100.793 288.391 113.762C288.391 113.762 301.521 98.3866 329.136 101.811L340.82 111.394L308.526 125.99L277.144 137.202L254.03 126.546L240.268 112.188Z" fill="black"/>
<path d="M240.268 112.744L249.82 103.851C249.82 103.851 286.858 101.349 288.391 114.317C288.391 114.317 301.521 98.9424 329.136 102.366L340.82 111.949L308.526 126.546L277.144 137.758L254.03 127.102L240.268 112.744Z" fill="#D5D6DB"/>
<path opacity="0.1" d="M236.043 113.856L240.268 165.923L285.061 168.241L283.118 116.396L283.081 115.524L236.043 113.856Z" fill="black"/>
<path d="M236.043 112.744L240.268 164.811L285.061 167.129L283.118 115.285L283.081 114.412L236.043 112.744Z" fill="#5D00A9"/>
<path opacity="0.1" d="M342.871 112.744L296.664 119.882V172.182L341.819 165.462L342.871 112.744Z" fill="black"/>
<path d="M342.871 111.633L296.664 118.77V171.07L341.819 164.35L342.871 111.633Z" fill="#5D00A9"/>
<path opacity="0.3" d="M331.975 124.395L307.015 127.252L307.56 136.012L331.959 133.266L331.975 124.395Z" fill="white"/>
<path d="M242.697 192.693L245.239 199.736C245.239 199.736 249.016 203.071 253.15 201.403C257.284 199.736 260.889 198.908 262.686 197.284C264.483 195.661 267.004 187.507 267.004 187.507C267.004 187.507 269.524 178.613 272.039 176.39C274.554 174.166 281.213 143.533 272.039 146.529C262.864 149.525 255.849 177.318 255.849 177.318C255.849 177.318 254.23 179.353 251.893 179.542C249.556 179.731 244.877 179.169 243.976 181.209C243.074 183.249 239.998 188.619 242.697 192.693Z" fill="#FFCBCD"/>
<path opacity="0.1" d="M296.664 119.876C294.298 120.425 291.841 120.396 289.488 119.792C287.135 119.188 284.952 118.025 283.113 116.396L285.061 168.235C285.061 168.235 289.648 173.349 296.664 172.182V119.876Z" fill="black"/>
<path d="M296.664 118.764C294.298 119.313 291.841 119.285 289.488 118.68C287.135 118.076 284.952 116.913 283.113 115.285L285.061 167.124C285.061 167.124 289.648 172.238 296.664 171.07V118.764Z" fill="#5D00A9"/>
<path opacity="0.1" d="M296.664 118.764C294.298 119.313 291.841 119.285 289.488 118.68C287.135 118.076 284.952 116.913 283.113 115.285L285.061 167.124C285.061 167.124 289.648 172.238 296.664 171.07V118.764Z" fill="black"/>
<path opacity="0.1" d="M297.743 112.922C297.743 112.922 316.54 107.002 321.44 107.836L297.743 112.922Z" fill="black"/>
<path opacity="0.1" d="M276.718 110.337C276.718 110.337 258.498 105.891 255.455 107.152L276.718 110.337Z" fill="black"/>
<path opacity="0.1" d="M309.595 113.661C309.595 113.661 322.164 108.914 326.708 111.171L309.595 113.661Z" fill="black"/>
<path opacity="0.1" d="M303.264 232.743C305.212 231.236 307.285 229.91 309.46 228.779C312.698 227.173 318.634 223.004 318.634 223.004" fill="black"/>
<path opacity="0.1" d="M255.455 176.017C255.455 176.017 247.57 182.66 245.201 183.243C242.832 183.827 241.369 189.008 241.369 189.008" fill="black"/>
<path d="M338.235 191.704L335.72 198.763C335.72 198.763 331.943 202.098 327.803 200.431C323.664 198.763 320.07 197.935 318.267 196.312C316.465 194.689 313.95 186.534 313.95 186.534C313.95 186.534 311.435 177.641 308.915 175.417C306.394 173.194 299.74 142.56 308.915 145.557C318.089 148.553 325.105 176.345 325.105 176.345C325.105 176.345 326.724 178.38 329.061 178.569C331.397 178.758 336.076 178.196 336.978 180.236C337.879 182.276 340.934 187.646 338.235 191.704Z" fill="#FFCBCD"/>
<path opacity="0.1" d="M333.826 178.719C333.826 178.719 338.98 182.132 338.958 186.212L333.826 178.719Z" fill="black"/>
<path d="M290.096 79.7875C303.41 79.7875 314.203 68.6707 314.203 54.9574C314.203 41.2441 303.41 30.1273 290.096 30.1273C276.782 30.1273 265.989 41.2441 265.989 54.9574C265.989 68.6707 276.782 79.7875 290.096 79.7875Z" fill="#FFCBCD"/>
<path d="M274.958 48.2928C277.883 47.8203 280.447 46.0694 283.242 45.0633C289.497 42.8009 296.416 44.3518 302.746 46.3918C305.175 47.1755 307.641 48.0593 310.188 48.0593C312.736 48.0593 315.439 46.9865 316.74 44.7242C317.938 42.6453 317.706 39.9438 316.697 37.7593C315.688 35.5748 313.998 33.8183 312.293 32.1619C306.68 26.7033 299.719 21.6006 292.017 22.1564C288.92 22.3843 285.957 23.5238 283.107 24.7856C279.52 26.3782 276.027 28.1898 272.649 30.2108C270.053 31.7616 265.244 33.835 263.749 36.6698C260.349 43.0566 269.67 49.1488 274.958 48.2928Z" fill="#3E373A"/>
<path opacity="0.1" d="M316.74 42.3897C315.439 44.652 312.736 45.7248 310.188 45.7248C307.641 45.7248 305.175 44.8743 302.741 44.0906C296.411 42.0506 289.497 40.4942 283.237 42.7621C280.447 43.7682 277.878 45.5414 274.953 45.986C270.69 46.6753 263.825 42.851 263.08 37.9873C262.244 43.607 270.204 48.4207 274.953 47.6536C277.878 47.1811 280.447 45.4302 283.237 44.4296C289.497 42.1618 296.411 43.7181 302.741 45.7581C305.175 46.5419 307.636 47.4257 310.188 47.3924C312.741 47.359 315.439 46.3251 316.74 44.0572C317.414 42.8235 317.679 41.3969 317.496 39.9939C317.411 40.8386 317.154 41.6552 316.74 42.3897Z" fill="black"/>
<path d="M512.377 343.636C512.377 343.636 515.577 347.944 510.898 354.453C506.219 360.962 502.366 366.454 503.92 370.512C503.92 370.512 510.979 358.427 516.721 358.255C522.464 358.083 518.686 350.901 512.377 343.636Z" fill="#5D00A9"/>
<path opacity="0.1" d="M512.377 343.636C512.656 344.052 512.876 344.507 513.03 344.987C518.632 351.768 521.622 358.099 516.23 358.255C511.211 358.405 505.194 367.649 503.753 369.978C503.799 370.166 503.855 370.352 503.92 370.534C503.92 370.534 510.979 358.449 516.722 358.277C522.464 358.105 518.686 350.901 512.377 343.636Z" fill="black"/>
<path d="M518.314 349.128C518.314 350.645 518.146 351.874 517.947 351.874C517.747 351.874 517.574 350.645 517.574 349.128C517.574 347.61 517.779 348.327 517.984 348.327C518.189 348.327 518.314 347.61 518.314 349.128Z" fill="#FFD037"/>
<path d="M520.359 350.94C519.069 351.662 517.941 352.102 517.844 351.918C517.747 351.735 518.713 350.995 520.003 350.251C521.293 349.506 520.785 350.05 520.882 350.251C520.98 350.451 521.654 350.212 520.359 350.94Z" fill="#FFD037"/>
<path d="M495.464 343.636C495.464 343.636 492.263 347.944 496.942 354.453C501.621 360.962 505.475 366.454 503.915 370.512C503.915 370.512 496.861 358.427 491.114 358.255C485.366 358.083 489.171 350.901 495.464 343.636Z" fill="#5D00A9"/>
<path opacity="0.1" d="M495.464 343.636C495.185 344.052 494.965 344.507 494.811 344.987C489.209 351.768 486.219 358.099 491.61 358.255C496.624 358.405 502.647 367.649 504.088 369.978C504.042 370.167 503.985 370.353 503.915 370.534C503.915 370.534 496.861 358.449 491.114 358.277C485.366 358.105 489.171 350.901 495.464 343.636Z" fill="black"/>
<path d="M489.517 349.128C489.517 350.645 489.678 351.874 489.884 351.874C490.089 351.874 490.256 350.645 490.256 349.128C490.256 347.61 490.045 348.327 489.846 348.327C489.646 348.327 489.517 347.61 489.517 349.128Z" fill="#FFD037"/>
<path d="M487.477 350.94C488.766 351.662 489.894 352.102 489.991 351.918C490.089 351.735 489.123 350.995 487.833 350.251C486.543 349.506 487.05 350.05 486.953 350.251C486.856 350.451 486.181 350.212 487.477 350.94Z" fill="#FFD037"/>
<path opacity="0.1" d="M503.92 403.485C522.4 403.485 537.38 401.118 537.38 398.199C537.38 395.279 522.4 392.913 503.92 392.913C485.441 392.913 470.461 395.279 470.461 398.199C470.461 401.118 485.441 403.485 503.92 403.485Z" fill="#5D00A9"/>
<path d="M521.141 364.703L520.98 366.048L520.753 367.949L520.661 368.744L520.435 370.645L520.337 371.44L520.116 373.335L517.553 394.958C517.326 396.887 514.266 398.393 510.569 398.393H497.266C493.57 398.393 490.515 396.887 490.283 394.958L487.719 373.335L487.493 371.44L487.401 370.645L487.174 368.744L487.077 367.949L486.856 366.048L486.694 364.703C486.57 363.591 488.221 362.691 490.315 362.691H517.526C519.614 362.691 521.271 363.608 521.141 364.703Z" fill="#65617D"/>
<path d="M520.98 366.048L520.758 367.949H487.083L486.856 366.048H520.98Z" fill="#9D9CB5"/>
<path d="M520.661 368.744L520.44 370.645H487.401L487.174 368.744H520.661Z" fill="#9D9CB5"/>
<path d="M520.343 371.44L520.116 373.341H487.719L487.498 371.44H520.343Z" fill="#9D9CB5"/>
</g>
<defs>
<linearGradient id="paint0_linear_67:24" x1="295.007" y1="278.995" x2="295.007" y2="-0.000253845" gradientUnits="userSpaceOnUse">
<stop stop-color="#808080" stop-opacity="0.25"/>
<stop offset="0.54" stop-color="#808080" stop-opacity="0.12"/>
<stop offset="1" stop-color="#808080" stop-opacity="0.1"/>
</linearGradient>
<clipPath id="clip0_67:24">
<rect width="552" height="452" fill="white"/>
</clipPath>
</defs>
</svg>
